<svg width="20" height="20" viewBox="0 0 20 20" fill="none" xmlns="http://www.w3.org/2000/svg">
<path fill-rule="evenodd" clip-rule="evenodd" d="M4.42708 0.000433338C4.35857 0.00354177 4.29227 0.0256126 4.23556 0.0641812C4.17886 0.10275 4.13397 0.156318 4.1059 0.218894L2.62442 3.55241C2.6034 3.5998 2.59255 3.65102 2.59259 3.70287V5.55481H3.33333V3.78244L4.44444 1.28226L5.55556 3.78244V5.55481H6.2963V3.70287C6.29633 3.65102 6.28548 3.5998 6.26444 3.55241L4.78296 0.218894C4.75248 0.150914 4.70222 0.0937017 4.63873 0.054732C4.57523 0.0157624 4.50149 -0.00316969 4.42708 0.000433338Z" fill="#32B4D9"/>
<path fill-rule="evenodd" clip-rule="evenodd" d="M9.98264 0.000433338C9.91413 0.00354177 9.84783 0.0256126 9.79112 0.0641812C9.73441 0.10275 9.68953 0.156318 9.66146 0.218894L8.17998 3.55241C8.15894 3.5998 8.14809 3.65102 8.14813 3.70287V5.55481H8.88887V3.78244L9.99998 1.28226L11.1111 3.78244V5.55481H11.8518V3.70287C11.8519 3.65102 11.841 3.5998 11.82 3.55241L10.3385 0.218894C10.308 0.150914 10.2578 0.0937017 10.1943 0.054732C10.1308 0.0157624 10.057 -0.00316969 9.98264 0.000433338Z" fill="#32B4D9"/>
<path fill-rule="evenodd" clip-rule="evenodd" d="M15.5382 0.000433338C15.4697 0.00354177 15.4034 0.0256126 15.3467 0.0641812C15.29 0.10275 15.2451 0.156318 15.217 0.218894L13.7355 3.55241C13.7145 3.5998 13.7037 3.65102 13.7037 3.70287V5.55481H14.4444V3.78244L15.5556 1.28226L16.6667 3.78244V5.55481H17.4074V3.70287C17.4074 3.65102 17.3966 3.5998 17.3756 3.55241L15.8941 0.218894C15.8636 0.150914 15.8133 0.0937017 15.7498 0.054732C15.6863 0.0157624 15.6126 -0.00316969 15.5382 0.000433338Z" fill="#32B4D9"/>
<path fill-rule="evenodd" clip-rule="evenodd" d="M0.37037 5.18446C0.272148 5.18447 0.177952 5.22351 0.108497 5.29297C0.0390413 5.36242 1.47895e-05 5.4566 0 5.55483V7.77724C1.47895e-05 7.87546 0.0390413 7.96964 0.108497 8.0391C0.177952 8.10855 0.272148 8.1476 0.37037 8.1476H19.6296C19.7279 8.1476 19.822 8.10855 19.8915 8.0391C19.961 7.96964 20 7.87546 20 7.77724V5.55483C20 5.4566 19.961 5.36242 19.8915 5.29297C19.822 5.22351 19.7279 5.18447 19.6296 5.18446H0.37037ZM0.740741 5.9252H19.2593V7.40677H0.740741V5.9252Z" fill="#32B4D9"/>
<path fill-rule="evenodd" clip-rule="evenodd" d="M0.37037 12.9626C0.272148 12.9626 0.177952 13.0017 0.108497 13.0711C0.0390413 13.1406 1.47895e-05 13.2347 0 13.333V15.5554C1.47895e-05 15.6536 0.0390413 15.7478 0.108497 15.8172C0.177952 15.8867 0.272148 15.9257 0.37037 15.9257H19.6296C19.7279 15.9257 19.822 15.8867 19.8915 15.8172C19.961 15.7478 20 15.6536 20 15.5554V13.333C20 13.2347 19.961 13.1406 19.8915 13.0711C19.822 13.0017 19.7279 12.9626 19.6296 12.9626H0.37037ZM0.740741 13.7034H19.2593V15.185H0.740741V13.7034Z" fill="#32B4D9"/>
<path fill-rule="evenodd" clip-rule="evenodd" d="M13.7037 7.77724V13.333H14.4444V7.77724H13.7037Z" fill="#32B4D9"/>
<path fill-rule="evenodd" clip-rule="evenodd" d="M16.6667 7.77724V13.333H17.4074V7.77724H16.6667Z" fill="#32B4D9"/>
<path fill-rule="evenodd" clip-rule="evenodd" d="M8.14815 7.77724V13.333H8.88889V7.77724H8.14815Z" fill="#32B4D9"/>
<path fill-rule="evenodd" clip-rule="evenodd" d="M11.1111 7.77724V13.333H11.8519V7.77724H11.1111Z" fill="#32B4D9"/>
<path fill-rule="evenodd" clip-rule="evenodd" d="M2.59259 7.77724V13.333H3.33333V7.77724H2.59259Z" fill="#32B4D9"/>
<path fill-rule="evenodd" clip-rule="evenodd" d="M5.55556 7.77724V13.333H6.2963V7.77724H5.55556Z" fill="#32B4D9"/>
<path fill-rule="evenodd" clip-rule="evenodd" d="M13.7037 15.5554V19.6296C13.7037 19.7279 13.7427 19.822 13.8122 19.8915C13.8817 19.9609 13.9759 20 14.0741 20H17.037C17.1353 20 17.2295 19.9609 17.2989 19.8915C17.3684 19.822 17.4074 19.7279 17.4074 19.6296V15.5554H16.6667V19.2593H14.4444V15.5554H13.7037Z" fill="#32B4D9"/>
<path fill-rule="evenodd" clip-rule="evenodd" d="M8.14815 15.5554V19.6296C8.14816 19.7279 8.18719 19.822 8.25664 19.8915C8.3261 19.9609 8.4203 20 8.51852 20H11.4815C11.5797 20 11.6739 19.9609 11.7434 19.8915C11.8128 19.822 11.8518 19.7279 11.8519 19.6296V15.5554H11.1111V19.2593H8.88889V15.5554H8.14815Z" fill="#32B4D9"/>
<path fill-rule="evenodd" clip-rule="evenodd" d="M2.59259 15.5554V19.6296C2.59261 19.7279 2.63163 19.822 2.70109 19.8915C2.77054 19.9609 2.86474 20 2.96296 20H5.92593C6.02415 20 6.11834 19.9609 6.1878 19.8915C6.25726 19.822 6.29628 19.7279 6.2963 19.6296V15.5554H5.55556V19.2593H3.33333V15.5554H2.59259Z" fill="#32B4D9"/>
</svg>
