<svg width="22" height="18" viewBox="0 0 22 18" fill="none" xmlns="http://www.w3.org/2000/svg">
<path d="M21.4762 18H0.52381C0.384887 18 0.251654 17.9487 0.15342 17.8575C0.055187 17.7663 0 17.6425 0 17.5135V1.94595C0 1.81692 0.055187 1.69318 0.15342 1.60195C0.251654 1.51071 0.384887 1.45946 0.52381 1.45946H5.76191C5.90083 1.45946 6.03406 1.51071 6.13229 1.60195C6.23053 1.69318 6.28571 1.81692 6.28571 1.94595V2.91892H15.7143V1.94595C15.7143 1.81692 15.7695 1.69318 15.8677 1.60195C15.9659 1.51071 16.0992 1.45946 16.2381 1.45946H21.4762C21.6151 1.45946 21.7483 1.51071 21.8466 1.60195C21.9448 1.69318 22 1.81692 22 1.94595V17.5135C22 17.6425 21.9448 17.7663 21.8466 17.8575C21.7483 17.9487 21.6151 18 21.4762 18ZM1.04762 17.027H20.9524V2.43243H16.7619V3.40541C16.7619 3.53443 16.7067 3.65817 16.6085 3.7494C16.5103 3.84064 16.377 3.89189 16.2381 3.89189H5.76191C5.62298 3.89189 5.48975 3.84064 5.39152 3.7494C5.29328 3.65817 5.2381 3.53443 5.2381 3.40541V2.43243H1.04762V17.027Z" fill="#32B4D9"/>
<path d="M13.0952 6.81081H2.61905C2.48012 6.81081 2.34689 6.75956 2.24866 6.66832C2.15043 6.57709 2.09524 6.45335 2.09524 6.32432C2.09524 6.1953 2.15043 6.07156 2.24866 5.98033C2.34689 5.88909 2.48012 5.83784 2.61905 5.83784H13.0952C13.2342 5.83784 13.3674 5.88909 13.4656 5.98033C13.5639 6.07156 13.619 6.1953 13.619 6.32432C13.619 6.45335 13.5639 6.57709 13.4656 6.66832C13.3674 6.75956 13.2342 6.81081 13.0952 6.81081Z" fill="#32B4D9"/>
<path d="M10.4762 9.72973H2.61905C2.48012 9.72973 2.34689 9.67848 2.24866 9.58724C2.15043 9.49601 2.09524 9.37227 2.09524 9.24324C2.09524 9.11422 2.15043 8.99048 2.24866 8.89925C2.34689 8.80801 2.48012 8.75676 2.61905 8.75676H10.4762C10.6151 8.75676 10.7483 8.80801 10.8466 8.89925C10.9448 8.99048 11 9.11422 11 9.24324C11 9.37227 10.9448 9.49601 10.8466 9.58724C10.7483 9.67848 10.6151 9.72973 10.4762 9.72973Z" fill="#32B4D9"/>
<path d="M7.85714 12.6486H2.61905C2.48012 12.6486 2.34689 12.5974 2.24866 12.5062C2.15043 12.4149 2.09524 12.2912 2.09524 12.1622C2.09524 12.0331 2.15043 11.9094 2.24866 11.8182C2.34689 11.7269 2.48012 11.6757 2.61905 11.6757H7.85714C7.99607 11.6757 8.1293 11.7269 8.22753 11.8182C8.32577 11.9094 8.38095 12.0331 8.38095 12.1622C8.38095 12.2912 8.32577 12.4149 8.22753 12.5062C8.1293 12.5974 7.99607 12.6486 7.85714 12.6486Z" fill="#32B4D9"/>
<path d="M16.2381 3.89189H5.76191C5.62298 3.89189 5.48975 3.84064 5.39152 3.7494C5.29328 3.65817 5.2381 3.53443 5.2381 3.40541V0.486486C5.2381 0.357462 5.29328 0.233722 5.39152 0.142488C5.48975 0.0512543 5.62298 0 5.76191 0H16.2381C16.377 0 16.5103 0.0512543 16.6085 0.142488C16.7067 0.233722 16.7619 0.357462 16.7619 0.486486V3.40541C16.7619 3.53443 16.7067 3.65817 16.6085 3.7494C16.5103 3.84064 16.377 3.89189 16.2381 3.89189ZM6.28571 2.91892H15.7143V0.972973H6.28571V2.91892Z" fill="#32B4D9"/>
<path d="M12.5714 15.5676C12.4888 15.5631 12.4083 15.5416 12.3358 15.5046C12.2633 15.4676 12.2006 15.4159 12.1524 15.3535L10.0571 12.4346C10.0186 12.3809 9.99186 12.3207 9.97838 12.2575C9.96491 12.1942 9.96498 12.1291 9.9786 12.0658C9.99222 12.0026 10.0191 11.9425 10.0578 11.8889C10.0964 11.8353 10.146 11.7893 10.2038 11.7535C10.2616 11.7177 10.3264 11.6929 10.3945 11.6804C10.4626 11.6678 10.5328 11.6679 10.6009 11.6806C10.6689 11.6932 10.7337 11.7182 10.7914 11.7541C10.8491 11.79 10.8986 11.8361 10.9371 11.8897L12.6238 14.2541L19.5171 6.0227C19.5573 5.9666 19.6096 5.91885 19.6706 5.88249C19.7317 5.84613 19.8002 5.82194 19.8718 5.81145C19.9435 5.80097 20.0167 5.80442 20.0869 5.82158C20.157 5.83875 20.2225 5.86926 20.2793 5.91118C20.3361 5.95309 20.3829 6.00551 20.4167 6.0651C20.4505 6.12469 20.4707 6.19015 20.4758 6.25735C20.481 6.32454 20.4711 6.392 20.4467 6.45545C20.4224 6.5189 20.3841 6.57696 20.3343 6.62595L13.001 15.3827C12.9506 15.4433 12.8853 15.4917 12.8105 15.5239C12.7357 15.556 12.6537 15.571 12.5714 15.5676Z" fill="#32B4D9"/>
</svg>
