<svg width="20" height="20" viewBox="0 0 20 20" fill="none" xmlns="http://www.w3.org/2000/svg">
<path d="M20 1.65195C20 0.741016 19.259 0 18.348 0H7.49609C6.58516 0 5.84395 0.741016 5.84395 1.65195V6.89414H1.65234C0.741211 6.89414 0 7.63555 0 8.54648V19.6C0 19.7617 0.0974609 19.9078 0.246875 19.9695C0.296484 19.9902 0.348438 20 0.4 20C0.504102 20 0.60625 19.9594 0.682813 19.8828L3.47148 17.0941H12.5023C13.4135 17.0941 14.1547 16.3527 14.1547 15.4418V10.2H16.5305L19.3172 12.9867C19.3938 13.0633 19.4959 13.1039 19.6 13.1039C19.6516 13.1039 19.7035 13.0941 19.7531 13.0734C19.9025 13.0117 20 12.8656 20 12.7039V1.65195ZM13.3547 15.4418C13.3547 15.9117 12.9723 16.2941 12.5023 16.2941H3.30586C3.1998 16.2941 3.09805 16.3363 3.02305 16.4113L0.8 18.6344V8.54648C0.8 8.07656 1.18242 7.69414 1.65234 7.69414H6.23428C6.2377 7.69424 6.2405 7.69609 6.24395 7.69609C6.24739 7.69609 6.2502 7.69424 6.25361 7.69414H12.5023C12.9723 7.69414 13.3547 8.07656 13.3547 8.54648V15.4418ZM19.2 11.7383L16.9789 9.51719C16.9039 9.44219 16.8021 9.4 16.6961 9.4H14.1547V8.54648C14.1547 7.63555 13.4135 6.89414 12.5023 6.89414H6.64395V1.65195C6.64395 1.18203 7.02617 0.8 7.49609 0.8H18.348C18.8178 0.8 19.2 1.18203 19.2 1.65195V11.7383Z" fill="#32B4D9"/>
<path d="M11.6 10.0941H2.55469C2.33379 10.0941 2.15469 10.273 2.15469 10.4941C2.15469 10.7152 2.33379 10.8941 2.55469 10.8941H11.6C11.8209 10.8941 12 10.7152 12 10.4941C12 10.273 11.8209 10.0941 11.6 10.0941Z" fill="#32B4D9"/>
<path d="M11.6 13.0941H2.55469C2.33379 13.0941 2.15469 13.273 2.15469 13.4941C2.15469 13.7152 2.33379 13.8941 2.55469 13.8941H11.6C11.8209 13.8941 12 13.7152 12 13.4941C12 13.273 11.8209 13.0941 11.6 13.0941Z" fill="#32B4D9"/>
</svg>
