<svg width="24" height="20" viewBox="0 0 24 20" fill="none" xmlns="http://www.w3.org/2000/svg">
<path d="M22.3774 0H1.62258C0.727969 0 0 0.740613 0 1.651V14.7016C0 15.6115 0.727969 16.3521 1.62258 16.3521H3.51422V19.5115C3.51422 19.7152 3.63844 19.8978 3.82617 19.9689C3.88102 19.9899 3.93773 19.9999 3.99422 19.9999C4.13039 19.9999 4.26352 19.9408 4.35633 19.832L6.02555 17.8791L7.6943 19.832C7.82602 19.9861 8.03813 20.0404 8.22469 19.9689C8.41242 19.8978 8.53664 19.7152 8.53664 19.5115V16.3521H22.3774C23.272 16.3521 24 15.6115 24 14.7016V1.651C24 0.740613 23.272 0 22.3774 0ZM6.02789 13.7435C4.33641 13.7435 2.96039 12.3434 2.96039 10.6228C2.96039 8.90214 4.33641 7.50198 6.02789 7.50198C7.71937 7.50198 9.09539 8.90214 9.09539 10.6228C9.09539 12.3434 7.71937 13.7435 6.02789 13.7435ZM7.57664 18.2053L6.38789 16.8142C6.29672 16.7074 6.16453 16.6464 6.02555 16.6464C5.88656 16.6464 5.75437 16.7074 5.66344 16.8142L4.47422 18.2058V14.4024C4.95264 14.6067 5.4774 14.7202 6.02789 14.7202C6.57653 14.7202 7.09954 14.6072 7.57664 14.4042V18.2053ZM23.04 14.7016C23.04 15.0731 22.7428 15.3755 22.3774 15.3755H8.53664V13.8227C9.46075 13.0713 10.0554 11.9173 10.0554 10.6228C10.0554 8.36325 8.24859 6.52531 6.02789 6.52531C3.80719 6.52531 2.00039 8.36325 2.00039 10.6228C2.00039 11.915 2.59283 13.0675 3.51422 13.819V15.3755H1.62258C1.25719 15.3755 0.96 15.0731 0.96 14.7016V1.651C0.96 1.27902 1.25719 0.976674 1.62258 0.976674H22.3774C22.7428 0.976674 23.04 1.27902 23.04 1.651V14.7016Z" fill="#32B4D9"/>
<path d="M20.6025 3.48989H3.99422C3.72914 3.48989 3.51422 3.70831 3.51422 3.97823C3.51422 4.24815 3.72914 4.46657 3.99422 4.46657H20.6025C20.8676 4.46657 21.0825 4.24815 21.0825 3.97823C21.0825 3.70831 20.8676 3.48989 20.6025 3.48989Z" fill="#32B4D9"/>
<path d="M20.6025 7.68797H12.2984C12.0333 7.68797 11.8184 7.90639 11.8184 8.17631C11.8184 8.44623 12.0333 8.66465 12.2984 8.66465H20.6025C20.8676 8.66465 21.0825 8.44623 21.0825 8.17631C21.0825 7.90639 20.8676 7.68797 20.6025 7.68797Z" fill="#32B4D9"/>
<path d="M20.6025 11.8856H12.2984C12.0333 11.8856 11.8184 12.104 11.8184 12.3739C11.8184 12.6438 12.0333 12.8622 12.2984 12.8622H20.6025C20.8676 12.8622 21.0825 12.6438 21.0825 12.3739C21.0825 12.104 20.8676 11.8856 20.6025 11.8856Z" fill="#32B4D9"/>
</svg>
