<svg width="25" height="17" viewBox="0 0 25 17" fill="none" xmlns="http://www.w3.org/2000/svg">
<path d="M15.3941 14.3669H6.58596V13.4591H15.3941C15.5201 13.4591 15.6409 13.4113 15.7299 13.3261C15.819 13.241 15.869 13.1255 15.869 13.0051V1.3618C15.869 1.24141 15.819 1.12595 15.7299 1.04082C15.6409 0.955688 15.5201 0.907864 15.3941 0.907864H1.4245C1.29857 0.907864 1.17779 0.955688 1.08875 1.04082C0.999697 1.12595 0.94967 1.24141 0.94967 1.3618V12.9961C0.94967 13.1165 0.999697 13.2319 1.08875 13.317C1.17779 13.4022 1.29857 13.45 1.4245 13.45H2.66382V14.3579H1.4245C1.0467 14.3579 0.684374 14.2144 0.417228 13.959C0.150081 13.7036 0 13.3572 0 12.9961V1.3618C0 1.00063 0.150081 0.654247 0.417228 0.398861C0.684374 0.143475 1.0467 0 1.4245 0H15.3941C15.7719 0 16.1343 0.143475 16.4014 0.398861C16.6686 0.654247 16.8186 1.00063 16.8186 1.3618V12.9961C16.8199 13.1757 16.784 13.3537 16.713 13.52C16.6419 13.6863 16.5372 13.8375 16.4048 13.9649C16.2724 14.0923 16.1149 14.1934 15.9415 14.2624C15.768 14.3314 15.582 14.3669 15.3941 14.3669Z" fill="#32B4D9"/>
<path d="M25 14.3669H22.4691V13.4591H24.0408V8.39317L21.0446 4.96599H16.8613V13.4591H18.3523V14.3669H15.9117V4.05812H21.0446C21.1833 4.05857 21.3203 4.08807 21.4458 4.14453C21.5713 4.20099 21.6823 4.28306 21.7711 4.38495L24.7626 7.81214C24.9042 7.97548 24.9814 8.18105 24.981 8.39317L25 14.3669Z" fill="#32B4D9"/>
<path d="M4.6771 16.9997C4.15998 17.0024 3.65366 16.8583 3.22232 16.5856C2.79097 16.3129 2.45402 15.924 2.25417 15.468C2.05432 15.0121 2.00056 14.5096 2.09972 14.0245C2.19887 13.5393 2.44647 13.0931 2.81114 12.7426C3.1758 12.3921 3.64111 12.1529 4.1481 12.0555C4.65508 11.9581 5.18091 12.0067 5.65895 12.1953C6.13698 12.3838 6.5457 12.7038 6.8333 13.1147C7.1209 13.5255 7.27444 14.0088 7.27444 14.5031C7.27632 14.8303 7.21052 15.1547 7.08084 15.4575C6.95115 15.7603 6.76013 16.0357 6.51875 16.2677C6.27738 16.4997 5.99042 16.6838 5.67436 16.8094C5.3583 16.9351 5.01939 16.9997 4.6771 16.9997ZM4.6771 12.9144C4.34781 12.9117 4.0251 13.0025 3.74994 13.1755C3.47477 13.3484 3.25954 13.5956 3.13156 13.8856C3.00359 14.1757 2.96864 14.4956 3.03115 14.8046C3.09366 15.1137 3.2508 15.3981 3.48265 15.6216C3.7145 15.8452 4.01059 15.9979 4.33335 16.0603C4.65612 16.1227 4.991 16.092 5.29551 15.9722C5.60002 15.8524 5.86042 15.6487 6.04367 15.3872C6.22692 15.1256 6.32476 14.8179 6.32477 14.5031C6.32603 14.2953 6.28436 14.0893 6.20218 13.8969C6.11999 13.7045 5.9989 13.5294 5.84584 13.3818C5.69277 13.2343 5.51075 13.117 5.31019 13.0368C5.10964 12.9565 4.8945 12.9149 4.6771 12.9144Z" fill="#32B4D9"/>
<path d="M20.3704 16.9997C19.8523 17.0069 19.3437 16.8667 18.9093 16.5967C18.4748 16.3268 18.1342 15.9395 17.9307 15.484C17.7272 15.0284 17.67 14.5254 17.7664 14.0387C17.8629 13.552 18.1086 13.1038 18.4722 12.751C18.8359 12.3982 19.3012 12.1568 19.8088 12.0574C20.3164 11.9581 20.8434 12.0054 21.3228 12.1933C21.8023 12.3811 22.2124 12.701 22.5011 13.1124C22.7898 13.5237 22.9439 14.0078 22.944 14.5031C22.9478 15.1601 22.6791 15.7917 22.1967 16.2597C21.7143 16.7276 21.0576 16.9937 20.3704 16.9997ZM20.3704 12.9143C20.0402 12.9071 19.7152 12.9941 19.437 13.1643C19.1587 13.3344 18.9398 13.5799 18.8082 13.8695C18.6765 14.1591 18.6381 14.4797 18.6979 14.7902C18.7577 15.1007 18.9129 15.3872 19.1437 15.6131C19.3746 15.8389 19.6706 15.9939 19.994 16.0582C20.3173 16.1225 20.6534 16.0932 20.9593 15.9741C21.2652 15.855 21.527 15.6514 21.7114 15.3894C21.8957 15.1274 21.9942 14.8189 21.9943 14.5031C21.9981 14.0869 21.8295 13.6862 21.5252 13.3885C21.2209 13.0908 20.8057 12.9203 20.3704 12.9143Z" fill="#32B4D9"/>
</svg>
