<svg width="25" height="18" viewBox="0 0 25 18" fill="none" xmlns="http://www.w3.org/2000/svg">
<path d="M24.1071 14.2857H23.2143V0.446429C23.2143 0.328028 23.1673 0.214478 23.0835 0.130756C22.9998 0.0470344 22.8863 0 22.7679 0H2.23214C2.11374 0 2.00019 0.0470344 1.91647 0.130756C1.83275 0.214478 1.78571 0.328028 1.78571 0.446429V14.2857H0.892857C0.656057 14.2857 0.428955 14.3798 0.261512 14.5472C0.0940686 14.7147 0 14.9418 0 15.1786V15.625C0 16.217 0.235171 16.7848 0.65378 17.2034C1.07239 17.622 1.64014 17.8571 2.23214 17.8571H22.7679C23.3599 17.8571 23.9276 17.622 24.3462 17.2034C24.7648 16.7848 25 16.217 25 15.625V15.1786C25 14.9418 24.9059 14.7147 24.7385 14.5472C24.571 14.3798 24.3439 14.2857 24.1071 14.2857ZM2.67857 0.892857H22.3214V14.2857H16.5179C16.4591 14.2854 16.4009 14.2966 16.3465 14.3189C16.2921 14.3411 16.2426 14.3738 16.2009 14.4152L15.442 15.1786H9.55804L8.79911 14.4152C8.75739 14.3738 8.70792 14.3411 8.65353 14.3189C8.59914 14.2966 8.5409 14.2854 8.48214 14.2857H2.67857V0.892857ZM24.1071 15.625C24.1071 15.9802 23.966 16.3209 23.7149 16.572C23.4637 16.8232 23.1231 16.9643 22.7679 16.9643H2.23214C1.87694 16.9643 1.53629 16.8232 1.28512 16.572C1.03396 16.3209 0.892857 15.9802 0.892857 15.625V15.1786H8.29911L9.05804 15.942C9.09975 15.9833 9.14922 16.0161 9.20361 16.0383C9.258 16.0605 9.31625 16.0718 9.375 16.0714H15.625C15.6838 16.0718 15.742 16.0605 15.7964 16.0383C15.8508 16.0161 15.9002 15.9833 15.942 15.942L16.7009 15.1786H24.1071V15.625Z" fill="#32B4D9"/>
<path d="M8.92857 12.5V8.92857C8.92857 8.81017 8.88154 8.69662 8.79782 8.6129C8.71409 8.52918 8.60054 8.48214 8.48214 8.48214H4.91071C4.79231 8.48214 4.67876 8.52918 4.59504 8.6129C4.51132 8.69662 4.46429 8.81017 4.46429 8.92857V12.5C4.46429 12.6184 4.51132 12.732 4.59504 12.8157C4.67876 12.8994 4.79231 12.9464 4.91071 12.9464H8.48214C8.60054 12.9464 8.71409 12.8994 8.79782 12.8157C8.88154 12.732 8.92857 12.6184 8.92857 12.5ZM8.03571 12.0536H5.35714V9.375H8.03571V12.0536Z" fill="#32B4D9"/>
<path d="M4.91071 6.69643H8.48214C8.60054 6.69643 8.71409 6.64939 8.79782 6.56567C8.88154 6.48195 8.92857 6.3684 8.92857 6.25V2.67857C8.92857 2.56017 8.88154 2.44662 8.79782 2.3629C8.71409 2.27918 8.60054 2.23214 8.48214 2.23214H4.91071C4.79231 2.23214 4.67876 2.27918 4.59504 2.3629C4.51132 2.44662 4.46429 2.56017 4.46429 2.67857V6.25C4.46429 6.3684 4.51132 6.48195 4.59504 6.56567C4.67876 6.64939 4.79231 6.69643 4.91071 6.69643ZM5.35714 3.125H8.03571V5.80357H5.35714V3.125Z" fill="#32B4D9"/>
<path d="M11.1607 4.01786H16.9643C17.0827 4.01786 17.1962 3.97082 17.28 3.8871C17.3637 3.80338 17.4107 3.68983 17.4107 3.57143C17.4107 3.45303 17.3637 3.33948 17.28 3.25576C17.1962 3.17203 17.0827 3.125 16.9643 3.125H11.1607C11.0423 3.125 10.9288 3.17203 10.845 3.25576C10.7613 3.33948 10.7143 3.45303 10.7143 3.57143C10.7143 3.68983 10.7613 3.80338 10.845 3.8871C10.9288 3.97082 11.0423 4.01786 11.1607 4.01786Z" fill="#32B4D9"/>
<path d="M11.1607 5.80357H15.1786C15.297 5.80357 15.4105 5.75654 15.4942 5.67282C15.578 5.58909 15.625 5.47554 15.625 5.35714C15.625 5.23874 15.578 5.12519 15.4942 5.04147C15.4105 4.95775 15.297 4.91071 15.1786 4.91071H11.1607C11.0423 4.91071 10.9288 4.95775 10.845 5.04147C10.7613 5.12519 10.7143 5.23874 10.7143 5.35714C10.7143 5.47554 10.7613 5.58909 10.845 5.67282C10.9288 5.75654 11.0423 5.80357 11.1607 5.80357Z" fill="#32B4D9"/>
<path d="M16.5179 5.35714C16.5179 5.47554 16.5649 5.58909 16.6486 5.67282C16.7323 5.75654 16.8459 5.80357 16.9643 5.80357H20.0893C20.2077 5.80357 20.3212 5.75654 20.405 5.67282C20.4887 5.58909 20.5357 5.47554 20.5357 5.35714C20.5357 5.23874 20.4887 5.12519 20.405 5.04147C20.3212 4.95775 20.2077 4.91071 20.0893 4.91071H16.9643C16.8459 4.91071 16.7323 4.95775 16.6486 5.04147C16.5649 5.12519 16.5179 5.23874 16.5179 5.35714Z" fill="#32B4D9"/>
<path d="M10.7143 11.1607C10.5959 11.1607 10.4823 11.2077 10.3986 11.2915C10.3149 11.3752 10.2679 11.4887 10.2679 11.6071C10.2679 11.7255 10.3149 11.8391 10.3986 11.9228C10.4823 12.0065 10.5959 12.0536 10.7143 12.0536H15.0893L15.1786 12.5804C15.1931 12.6605 15.2292 12.7351 15.2831 12.7962C15.337 12.8572 15.4066 12.9024 15.4843 12.9268C15.562 12.9511 15.6449 12.9538 15.724 12.9344C15.8031 12.9151 15.8754 12.8745 15.933 12.817L16.9643 11.7902L18.433 13.2634C18.4745 13.3052 18.5239 13.3384 18.5783 13.3611C18.6327 13.3838 18.6911 13.3954 18.75 13.3954C18.8089 13.3954 18.8673 13.3838 18.9217 13.3611C18.9761 13.3384 19.0255 13.3052 19.067 13.2634L20.4062 11.9241C20.4481 11.8826 20.4813 11.8332 20.504 11.7788C20.5266 11.7244 20.5383 11.6661 20.5383 11.6071C20.5383 11.5482 20.5266 11.4899 20.504 11.4355C20.4813 11.3811 20.4481 11.3317 20.4062 11.2902L18.933 9.82143L19.9598 8.79911C20.0198 8.74175 20.0627 8.66879 20.0835 8.58842C20.1044 8.50806 20.1024 8.42347 20.0778 8.34417C20.0533 8.26486 20.007 8.19398 19.9444 8.1395C19.8818 8.08501 19.8052 8.04907 19.7232 8.03571L14.8125 7.14286C14.7402 7.12808 14.6653 7.13146 14.5946 7.1527C14.5239 7.17394 14.4596 7.21238 14.4074 7.26457C14.3552 7.31676 14.3168 7.38109 14.2956 7.45178C14.2743 7.52247 14.2709 7.59732 14.2857 7.66964L14.6027 9.375H10.7143C10.5959 9.375 10.4823 9.42203 10.3986 9.50576C10.3149 9.58948 10.2679 9.70303 10.2679 9.82143C10.2679 9.93983 10.3149 10.0534 10.3986 10.1371C10.4823 10.2208 10.5959 10.2679 10.7143 10.2679H14.7679L14.9286 11.1607H10.7143ZM18.7232 8.76786L17.9866 9.50447C17.9448 9.54597 17.9116 9.59534 17.8889 9.64974C17.8662 9.70415 17.8546 9.7625 17.8546 9.82143C17.8546 9.88036 17.8662 9.93871 17.8889 9.99311C17.9116 10.0475 17.9448 10.0969 17.9866 10.1384L19.4598 11.6071L18.75 12.317L17.2812 10.8438C17.2397 10.8019 17.1904 10.7687 17.136 10.746C17.0816 10.7234 17.0232 10.7117 16.9643 10.7117C16.9054 10.7117 16.847 10.7234 16.7926 10.746C16.7382 10.7687 16.6888 10.8019 16.6473 10.8438L15.9107 11.5804L15.2857 8.14286L18.7232 8.76786Z" fill="#32B4D9"/>
</svg>
