<svg width="40" height="40" viewBox="0 0 40 40" fill="none" xmlns="http://www.w3.org/2000/svg">
<path d="M13.1586 15.9687H14.6782V17.4883C14.6782 17.8432 14.9685 18.1336 15.3234 18.1336C15.6783 18.1336 15.9687 17.8432 15.9687 17.4883V15.9687H17.4883C17.8432 15.9687 18.1336 15.6783 18.1336 15.3234C18.1336 14.9685 17.8432 14.6782 17.4883 14.6782H15.9687V13.1586C15.9687 12.8037 15.6783 12.5133 15.3234 12.5133C14.9685 12.5133 14.6782 12.8037 14.6782 13.1586V14.6782H13.1586C12.8037 14.6782 12.5133 14.9685 12.5133 15.3234C12.5133 15.6783 12.8037 15.9687 13.1586 15.9687Z" fill="#B3B3B3"/>
<path d="M27.4415 10H12.5617C11.1486 10 10 11.1486 10 12.5617V27.4383C10 28.8514 11.1486 30 12.5617 30H27.4383C28.8514 30 30 28.8514 30 27.4383V12.5617C30 11.1486 28.8514 10 27.4383 10H27.4415ZM12.5617 11.2905H19.3563V19.3563H11.2905V12.5617C11.2905 11.8616 11.8616 11.2905 12.5617 11.2905ZM11.2905 27.4383V20.6437H19.3563V28.7095H12.5617C11.8616 28.7095 11.2905 28.1384 11.2905 27.4383ZM20.6469 28.7095V20.6437H28.7127V27.4383C28.7127 28.1384 28.1416 28.7095 27.4415 28.7095H20.6469ZM28.7127 19.3531H20.6469V11.2905H27.4415C28.1416 11.2905 28.7127 11.8616 28.7127 12.5617V19.3563V19.3531Z" fill="#B3B3B3"/>
<path d="M26.8447 14.6782H22.5181C22.1633 14.6782 21.8729 14.9685 21.8729 15.3234C21.8729 15.6783 22.1633 15.9687 22.5181 15.9687H26.8447C27.1995 15.9687 27.4899 15.6783 27.4899 15.3234C27.4899 14.9685 27.1995 14.6782 26.8447 14.6782Z" fill="#B3B3B3"/>
<path d="M13.336 26.664C13.5812 26.9092 14.0039 26.9092 14.2491 26.664L15.3234 25.5896L16.3978 26.664C16.5204 26.7866 16.6817 26.8511 16.8527 26.8511C17.0237 26.8511 17.185 26.7834 17.3109 26.6608C17.5625 26.4091 17.5625 25.9994 17.3109 25.7477L16.2365 24.6733L17.3109 23.599C17.5625 23.3473 17.5625 22.9376 17.3109 22.6859C17.0592 22.4343 16.6495 22.4343 16.3978 22.6859L15.3234 23.7603L14.2491 22.6859C13.9974 22.4343 13.5877 22.4343 13.336 22.6859C13.0844 22.9376 13.0844 23.3473 13.336 23.599L14.4104 24.6733L13.336 25.7477C13.0844 25.9994 13.0844 26.4091 13.336 26.6608V26.664Z" fill="#B3B3B3"/>
<path d="M26.8447 22.8859H22.5181C22.1633 22.8859 21.8729 23.1763 21.8729 23.5312C21.8729 23.8861 22.1633 24.1765 22.5181 24.1765H26.8447C27.1995 24.1765 27.4899 23.8861 27.4899 23.5312C27.4899 23.1763 27.1995 22.8859 26.8447 22.8859Z" fill="#B3B3B3"/>
<path d="M26.8447 25.1831H22.5181C22.1633 25.1831 21.8729 25.4735 21.8729 25.8284C21.8729 26.1833 22.1633 26.4736 22.5181 26.4736H26.8447C27.1995 26.4736 27.4899 26.1833 27.4899 25.8284C27.4899 25.4735 27.1995 25.1831 26.8447 25.1831Z" fill="#B3B3B3"/>
<rect x="0.75" y="0.75" width="38.5" height="38.5" rx="19.25" stroke="#B3B3B3" stroke-width="1.5"/>
</svg>
