<svg width="20" height="20" viewBox="0 0 20 20" fill="none" xmlns="http://www.w3.org/2000/svg">
<path d="M19.4337 14.4258L16.0769 11.8994C15.5175 11.4984 14.7582 11.5385 14.2786 12.0197L12.6002 13.704C12.5603 13.7441 12.4803 13.7441 12.4404 13.7441C11.0417 13.1827 9.76291 12.3806 8.7239 11.2979C7.64492 10.2151 6.84568 8.97194 6.28621 7.56837C6.24624 7.52826 6.28621 7.44806 6.32617 7.40796L7.96462 5.72367C8.44416 5.24245 8.52409 4.48051 8.0845 3.91908L5.56689 0.550506C5.16727 0.0291793 4.48791 -0.131229 3.88848 0.109383L0.811396 1.51296C0.251926 1.75357 -0.0677708 2.3551 0.0121535 2.95663C0.33185 5.00183 1.49075 10.1349 5.60685 14.3055C9.76291 18.5162 14.918 19.6792 16.9961 20C17.036 20 17.076 20 17.1159 20C17.1559 20 17.1959 20 17.1959 20C17.7154 20 18.1949 19.6792 18.4347 19.198L19.8733 16.1502C20.1531 15.5086 19.9533 14.7867 19.4337 14.4258ZM7.08545 4.80132L5.40704 6.44551C5.00742 6.84653 4.88753 7.40796 5.08734 7.92928C5.68678 9.49326 6.6059 10.8968 7.80477 12.0999C9.00363 13.303 10.4023 14.1852 11.9608 14.8268C12.4803 15.0273 13.0398 14.907 13.4394 14.506L15.1178 12.8217C15.1578 12.7816 15.2777 12.7415 15.3176 12.8217L18.6745 15.3482C18.7544 15.3883 18.7544 15.4685 18.7144 15.5487L17.2758 18.6365C17.2358 18.7167 17.1959 18.7167 17.1159 18.7167C15.2777 18.436 10.6021 17.4335 6.72579 13.704C6.6059 13.6238 6.52598 13.5035 6.40609 13.3832L6.20628 13.1827C2.52977 9.29275 1.49075 4.60081 1.21102 2.79622C1.21102 2.71602 1.25098 2.67591 1.29094 2.63581L4.32806 1.19214C4.40799 1.15204 4.40799 1.15204 4.44795 1.15204C4.48791 1.15204 4.52787 1.19214 4.56784 1.23224L7.08545 4.60081C7.12541 4.68102 7.12541 4.76122 7.08545 4.80132Z" fill="#32B4D9"/>
<path d="M11.6811 7.72877C12.2006 7.72877 12.6002 8.12979 12.6002 8.65112C12.6002 8.97194 12.88 9.25265 13.1997 9.25265C13.5194 9.25265 13.7991 8.97194 13.7991 8.65112C13.7991 7.44806 12.84 6.48561 11.6411 6.48561C11.3214 6.48561 11.0417 6.76632 11.0417 7.08714C11.0817 7.44806 11.3614 7.72877 11.6811 7.72877Z" fill="#32B4D9"/>
<path d="M11.6811 5.56326C13.3595 5.56326 14.7182 6.92673 14.7182 8.61102C14.7182 8.93183 14.998 9.21255 15.3176 9.21255C15.6373 9.21255 15.9171 8.93183 15.9171 8.61102C15.9171 6.245 13.9989 4.3201 11.6411 4.3201C11.3214 4.3201 11.0417 4.60081 11.0417 4.92163C11.0417 5.24245 11.3614 5.56326 11.6811 5.56326Z" fill="#32B4D9"/>
<path d="M11.6811 3.71857C14.3586 3.71857 16.5565 5.92418 16.5565 8.61102C16.5565 8.93183 16.8362 9.21255 17.1559 9.21255C17.4756 9.21255 17.7553 8.93183 17.7553 8.61102C17.7553 5.24245 14.998 2.4754 11.6411 2.4754C11.3214 2.4754 11.0417 2.75612 11.0417 3.07694C11.0417 3.39775 11.3614 3.71857 11.6811 3.71857Z" fill="#32B4D9"/>
</svg>
