<svg width="12" height="16" viewBox="0 0 12 16" fill="none" xmlns="http://www.w3.org/2000/svg">
<path d="M11.2392 3.04119C10.169 1.13691 8.21048 0 6.00006 0C3.78963 0 1.83109 1.13691 0.760835 3.0413C-0.309314 4.94569 -0.247395 7.18368 0.926617 9.02786L4.91937 15.3556C5.15406 15.724 5.55786 16 5.9995 16H6.00061C6.44214 16 6.84605 15.724 7.08063 15.3556L11.0734 9.05573C12.2474 7.21154 12.3093 4.94559 11.2392 3.04119ZM6.00006 8.27972C4.49637 8.27972 3.27298 7.07507 3.27298 5.59441C3.27298 4.11375 4.49637 2.90909 6.00006 2.90909C7.50386 2.90909 8.72714 4.11375 8.72714 5.59441C8.72714 7.07507 7.50386 8.27972 6.00006 8.27972Z" fill="#32B4D9"/>
</svg>
