<svg width="22" height="22" viewBox="0 0 22 22" fill="none" xmlns="http://www.w3.org/2000/svg">
<path d="M3.47443 6.56558H5.14599V8.23713C5.14599 8.62752 5.4654 8.94693 5.85578 8.94693C6.24617 8.94693 6.56558 8.62752 6.56558 8.23713V6.56558H8.23713C8.62752 6.56558 8.94693 6.24617 8.94693 5.85578C8.94693 5.4654 8.62752 5.14599 8.23713 5.14599H6.56558V3.47443C6.56558 3.08405 6.24617 2.76464 5.85578 2.76464C5.4654 2.76464 5.14599 3.08405 5.14599 3.47443V5.14599H3.47443C3.08405 5.14599 2.76464 5.4654 2.76464 5.85578C2.76464 6.24617 3.08405 6.56558 3.47443 6.56558Z" fill="white"/>
<path d="M19.1857 0H2.81787C1.26343 0 0 1.26343 0 2.81787V19.1821C0 20.7366 1.26343 22 2.81787 22H19.1821C20.7366 22 22 20.7366 22 19.1821V2.81787C22 1.26343 20.7366 0 19.1821 0H19.1857ZM2.81787 1.41958H10.292V10.292H1.41958V2.81787C1.41958 2.04775 2.04775 1.41958 2.81787 1.41958ZM1.41958 19.1821V11.708H10.292V20.5804H2.81787C2.04775 20.5804 1.41958 19.9522 1.41958 19.1821ZM11.7116 20.5804V11.708H20.584V19.1821C20.584 19.9522 19.9558 20.5804 19.1857 20.5804H11.7116ZM20.584 10.2884H11.7116V1.41958H19.1857C19.9558 1.41958 20.584 2.04775 20.584 2.81787V10.292V10.2884Z" fill="white"/>
<path d="M18.5291 5.14599H13.77C13.3796 5.14599 13.0602 5.4654 13.0602 5.85578C13.0602 6.24617 13.3796 6.56558 13.77 6.56558H18.5291C18.9195 6.56558 19.2389 6.24617 19.2389 5.85578C19.2389 5.4654 18.9195 5.14599 18.5291 5.14599Z" fill="white"/>
<path d="M3.66962 18.3304C3.93935 18.6001 4.40426 18.6001 4.67398 18.3304L5.85578 17.1486L7.03759 18.3304C7.17245 18.4652 7.3499 18.5362 7.53799 18.5362C7.72608 18.5362 7.90353 18.4617 8.04194 18.3268C8.31876 18.05 8.31876 17.5993 8.04194 17.3225L6.86014 16.1407L8.04194 14.9589C8.31876 14.682 8.31876 14.2313 8.04194 13.9545C7.76512 13.6777 7.31441 13.6777 7.03759 13.9545L5.85578 15.1363L4.67398 13.9545C4.39716 13.6777 3.94644 13.6777 3.66962 13.9545C3.39281 14.2313 3.39281 14.682 3.66962 14.9589L4.85143 16.1407L3.66962 17.3225C3.39281 17.5993 3.39281 18.05 3.66962 18.3268V18.3304Z" fill="white"/>
<path d="M18.5291 14.1745H13.77C13.3796 14.1745 13.0602 14.4939 13.0602 14.8843C13.0602 15.2747 13.3796 15.5941 13.77 15.5941H18.5291C18.9195 15.5941 19.2389 15.2747 19.2389 14.8843C19.2389 14.4939 18.9195 14.1745 18.5291 14.1745Z" fill="white"/>
<path d="M18.5291 16.7014H13.77C13.3796 16.7014 13.0602 17.0208 13.0602 17.4112C13.0602 17.8016 13.3796 18.121 13.77 18.121H18.5291C18.9195 18.121 19.2389 17.8016 19.2389 17.4112C19.2389 17.0208 18.9195 16.7014 18.5291 16.7014Z" fill="white"/>
</svg>
