<svg width="149" height="30" viewBox="0 0 149 30" fill="none" xmlns="http://www.w3.org/2000/svg">
<line x1="148.5" y1="2.18557e-08" x2="148.5" y2="30" stroke="#282828"/>
<path d="M45.4308 9.47608H42.9017C42.7393 9.47608 42.6001 9.52164 42.4841 9.63554C42.3681 9.74943 42.3217 9.8861 42.3217 10.0456V15.7403H36.0337V10.0456C36.0337 9.8861 35.9873 9.74943 35.8713 9.63554C35.7553 9.52164 35.6161 9.47608 35.4537 9.47608H32.9246C32.7622 9.47608 32.623 9.52164 32.5069 9.63554C32.3909 9.74943 32.3445 9.8861 32.3445 10.0456V24.8519C32.3445 25.0114 32.3909 25.1481 32.5069 25.262C32.623 25.3759 32.7622 25.4214 32.9246 25.4214H35.4537C35.6161 25.4214 35.7553 25.3759 35.8713 25.262C35.9873 25.1481 36.0337 25.0114 36.0337 24.8519V18.9749H42.3217V24.8519C42.3217 25.0114 42.3681 25.1481 42.4841 25.262C42.6001 25.3759 42.7393 25.4214 42.9017 25.4214H45.4308C45.5932 25.4214 45.7325 25.3759 45.8485 25.262C45.9645 25.1481 46.0109 25.0114 46.0109 24.8519V10.0456C46.0109 9.8861 45.9645 9.74943 45.8485 9.63554C45.7325 9.54442 45.5932 9.47608 45.4308 9.47608Z" fill="#32B4D9"/>
<path d="M63.2737 9.47608H60.9998C60.8142 9.47608 60.6518 9.52164 60.5358 9.58998C60.4198 9.68109 60.3269 9.77221 60.2573 9.86333L53.1341 19.8861V10.0456C53.1341 9.8861 53.0877 9.74943 52.9717 9.63554C52.8557 9.52164 52.7165 9.47608 52.5541 9.47608H50.025C49.8625 9.47608 49.7465 9.52164 49.6073 9.63554C49.4913 9.74943 49.4217 9.8861 49.4217 10.0456V24.8519C49.4217 25.0114 49.4681 25.1253 49.5841 25.262C49.7001 25.3759 49.8393 25.4442 50.0018 25.4442H52.2988C52.5076 25.4442 52.6701 25.3986 52.7861 25.3075C52.9021 25.2164 52.9717 25.1253 53.0181 25.0342L60.1413 15.3303V24.8747C60.1413 25.0342 60.1877 25.1708 60.3269 25.2847C60.443 25.3986 60.5822 25.4442 60.7446 25.4442H63.2737C63.4361 25.4442 63.5753 25.3986 63.6913 25.2847C63.8073 25.1708 63.8538 25.0342 63.8538 24.8747V10.0683C63.8538 9.90888 63.8073 9.77221 63.6913 9.65831C63.5753 9.54442 63.4361 9.47608 63.2737 9.47608Z" fill="#32B4D9"/>
<path d="M82.2767 9.47608H80.1188C79.8868 9.47608 79.7012 9.54442 79.6084 9.65831C79.4924 9.77221 79.4227 9.86333 79.3763 9.93166L75.0606 17.6538L70.7914 9.93166C70.7449 9.86333 70.6753 9.77221 70.5593 9.65831C70.4433 9.54442 70.2809 9.47608 70.0489 9.47608H67.891C67.7286 9.47608 67.6126 9.52164 67.4734 9.63554C67.3574 9.74943 67.2878 9.8861 67.2878 10.0456V24.8519C67.2878 25.0114 67.3342 25.1481 67.4734 25.262C67.5894 25.3759 67.7286 25.4214 67.891 25.4214H70.2577C70.4201 25.4214 70.5361 25.3759 70.6521 25.262C70.7681 25.1481 70.8146 25.0114 70.8146 24.8519V15.6492L73.7613 21.0706C73.8309 21.2073 73.9469 21.3212 74.0629 21.4351C74.1789 21.549 74.3414 21.5945 74.5502 21.5945H75.6407C75.8495 21.5945 76.012 21.549 76.128 21.4351C76.244 21.3212 76.36 21.2073 76.4296 21.0706L79.3531 15.6492V24.8519C79.3531 25.0114 79.3995 25.1481 79.5156 25.262C79.6316 25.3759 79.7476 25.4214 79.91 25.4214H82.2767C82.4391 25.4214 82.5783 25.3759 82.6943 25.262C82.8103 25.1481 82.8567 25.0114 82.8567 24.8519V10.0456C82.8567 9.8861 82.8103 9.74943 82.6943 9.63554C82.5783 9.54442 82.4391 9.47608 82.2767 9.47608Z" fill="#32B4D9"/>
<path d="M95.0845 10.0911C95.0381 9.93166 94.9453 9.77221 94.8061 9.65831C94.6669 9.54442 94.4813 9.47608 94.226 9.47608H91.2561C91.0009 9.47608 90.8152 9.54442 90.676 9.65831C90.5368 9.77221 90.444 9.93166 90.3976 10.0911L84.8754 24.738C84.8522 24.8064 84.8522 24.8747 84.8522 24.9431C84.8522 25.0569 84.8986 25.1708 84.9914 25.262C85.0842 25.3531 85.2002 25.4214 85.3394 25.4214H87.7525C87.9845 25.4214 88.1469 25.3759 88.263 25.262C88.379 25.1481 88.4486 25.0569 88.4718 24.9658L89.4695 22.4146H96.0126L97.0104 24.9658C97.0336 25.0569 97.1032 25.1481 97.2192 25.262C97.3352 25.3759 97.4976 25.4214 97.7297 25.4214H100.143C100.282 25.4214 100.398 25.3759 100.491 25.262C100.584 25.1708 100.63 25.0569 100.63 24.9431C100.63 24.8747 100.63 24.8064 100.607 24.738L95.0845 10.0911ZM90.328 19.4761L92.7411 12.9157L95.131 19.4761H90.328Z" fill="#32B4D9"/>
<path d="M111.35 17.1526L115.689 10.2278C115.758 10.1367 115.781 10.0456 115.781 9.95444C115.781 9.84055 115.735 9.72665 115.665 9.63554C115.573 9.54442 115.456 9.47608 115.317 9.47608H112.51C112.301 9.47608 112.115 9.52164 111.976 9.58998C111.837 9.68109 111.721 9.77221 111.651 9.90888L108.055 15.7403H106.338V10.0456C106.338 9.8861 106.291 9.74943 106.175 9.63554C106.059 9.52164 105.92 9.47608 105.758 9.47608H103.229C103.066 9.47608 102.927 9.52164 102.811 9.63554C102.695 9.74943 102.649 9.8861 102.649 10.0456V24.8519C102.649 25.0114 102.695 25.1481 102.811 25.262C102.927 25.3759 103.066 25.4214 103.229 25.4214H105.758C105.92 25.4214 106.059 25.3759 106.175 25.262C106.291 25.1481 106.338 25.0114 106.338 24.8519V18.9749H108.194L112.022 25.0114C112.092 25.0797 112.162 25.1708 112.278 25.262C112.394 25.3531 112.556 25.4214 112.788 25.4214H115.689C115.828 25.4214 115.944 25.3759 116.06 25.262C116.153 25.1708 116.199 25.0342 116.199 24.8975C116.199 24.7836 116.176 24.7153 116.153 24.6469L111.35 17.1526Z" fill="#32B4D9"/>
<path d="M131.49 19.7722H128.844C128.659 19.7722 128.52 19.8178 128.404 19.8861C128.288 19.9772 128.218 20.1139 128.148 20.3417C127.94 21.2301 127.545 21.8223 126.988 22.164C126.431 22.5057 125.758 22.6651 124.946 22.6651C123.995 22.6651 123.229 22.4146 122.673 21.8907C122.116 21.3667 121.814 20.5239 121.768 19.3166C121.721 18.0182 121.721 16.7426 121.768 15.4897C121.814 14.2825 122.116 13.4396 122.673 12.9157C123.229 12.3918 123.995 12.1412 124.946 12.1412C125.758 12.1412 126.431 12.3007 126.965 12.6424C127.499 12.9841 127.893 13.5991 128.125 14.4875C128.195 14.6925 128.264 14.8519 128.38 14.9431C128.496 15.0342 128.636 15.0797 128.821 15.0797H131.466C131.606 15.0797 131.722 15.0342 131.814 14.9431C131.907 14.8519 131.977 14.738 131.977 14.6014C131.954 13.8041 131.768 13.0752 131.42 12.4146C131.072 11.754 130.608 11.1845 129.981 10.7062C129.355 10.2278 128.636 9.84055 127.777 9.58998C126.919 9.33941 125.991 9.20273 124.946 9.20273C123.531 9.20273 122.301 9.4533 121.28 9.93166C120.259 10.41 119.471 11.1162 118.914 12.0273C118.357 12.9385 118.032 14.0547 117.962 15.3531C117.939 16.0137 117.939 16.697 117.939 17.4032C117.939 18.1093 117.939 18.7927 117.962 19.4077C118.032 20.7289 118.334 21.8451 118.89 22.779C119.447 23.6902 120.236 24.3964 121.257 24.8747C122.278 25.3531 123.508 25.6036 124.97 25.6036C126.014 25.6036 126.942 25.467 127.8 25.2164C128.659 24.9658 129.378 24.5786 130.005 24.1002C130.631 23.6219 131.095 23.0524 131.443 22.3918C131.791 21.7312 131.977 21.0023 132 20.205C132 20.0683 131.954 19.9544 131.838 19.8633C131.745 19.8178 131.629 19.7722 131.49 19.7722Z" fill="#32B4D9"/>
<path d="M21.9729 6.40091L23.2027 5.71754L12.8311 0L11.6013 0.660592L12.8311 1.34396L21.9729 6.40091Z" fill="#DCDCDC"/>
<path d="M12.8311 18.4966V12.779V24.2825L23.2027 30V18.4966H12.8311Z" fill="#32B4D9"/>
<path d="M10.3716 11.4351L1.22974 6.40091L0 7.0615V18.4966L10.3716 12.779L11.6013 12.1185L10.3716 11.4351Z" fill="#DCDCDC"/>
<path d="M0 18.4966V30L10.3716 24.2825V18.4966H0Z" fill="#DCDCDC"/>
<path d="M0 18.4966H10.3716V12.779L0 18.4966Z" fill="#B3B3B3"/>
<path d="M23.2027 7.0615L21.9729 6.40091L12.8311 1.34396L11.6013 0.660592L10.3716 0L0 5.71754L1.22974 6.40091L10.3716 11.4351L11.6013 12.1185L12.8311 12.779L23.2027 18.4966V7.0615Z" fill="#32B4D9"/>
<path d="M23.2027 18.4966L12.8311 12.779V18.4966H23.2027Z" fill="#009DC1"/>
</svg>
