<svg width="30" height="30" viewBox="0 0 30 30" fill="none" xmlns="http://www.w3.org/2000/svg">
<path fill-rule="evenodd" clip-rule="evenodd" d="M6.64062 0.000650007C6.53786 0.00531266 6.43841 0.0384188 6.35335 0.0962718C6.26829 0.154125 6.20096 0.234477 6.15886 0.328341L3.93663 5.32861C3.90509 5.3997 3.88883 5.47654 3.88889 5.55431V8.33222H5V5.67366L6.66667 1.92339L8.33333 5.67366V8.33222H9.44444V5.55431C9.4445 5.47653 9.42822 5.3997 9.39667 5.32861L7.17444 0.328341C7.12873 0.226371 7.05333 0.140553 6.95809 0.082098C6.86285 0.0236436 6.75224 -0.00475454 6.64062 0.000650007Z" fill="#32B4D9"/>
<path fill-rule="evenodd" clip-rule="evenodd" d="M14.974 0.000650007C14.8712 0.00531266 14.7717 0.0384188 14.6867 0.0962718C14.6016 0.154125 14.5343 0.234477 14.4922 0.328341L12.27 5.32861C12.2384 5.3997 12.2221 5.47653 12.2222 5.55431V8.33222H13.3333V5.67366L15 1.92339L16.6666 5.67366V8.33222H17.7777V5.55431C17.7778 5.47653 17.7615 5.3997 17.73 5.32861L15.5077 0.328341C15.462 0.226371 15.3866 0.140553 15.2914 0.082098C15.1962 0.0236436 15.0856 -0.00475454 14.974 0.000650007Z" fill="#32B4D9"/>
<path fill-rule="evenodd" clip-rule="evenodd" d="M23.3073 0.000650007C23.2045 0.00531266 23.1051 0.0384188 23.02 0.0962718C22.935 0.154125 22.8676 0.234477 22.8255 0.328341L20.6033 5.32861C20.5718 5.3997 20.5555 5.47654 20.5556 5.55431V8.33222H21.6667V5.67366L23.3333 1.92339L25 5.67366V8.33222H26.1111V5.55431C26.1112 5.47653 26.0949 5.3997 26.0633 5.32861L23.8411 0.328341C23.7954 0.226371 23.72 0.140553 23.6248 0.082098C23.5295 0.0236436 23.4189 -0.00475454 23.3073 0.000650007Z" fill="#32B4D9"/>
<path fill-rule="evenodd" clip-rule="evenodd" d="M0.555556 7.77669C0.408222 7.77671 0.266928 7.83527 0.162745 7.93945C0.0585619 8.04364 2.21843e-05 8.18491 0 8.33225V11.6659C2.21843e-05 11.8132 0.0585619 11.9545 0.162745 12.0586C0.266928 12.1628 0.408222 12.2214 0.555556 12.2214H29.4444C29.5918 12.2214 29.7331 12.1628 29.8373 12.0586C29.9414 11.9545 30 11.8132 30 11.6659V8.33225C30 8.18491 29.9414 8.04364 29.8373 7.93945C29.7331 7.83527 29.5918 7.77671 29.4444 7.77669H0.555556ZM1.11111 8.8878H28.8889V11.1102H1.11111V8.8878Z" fill="#32B4D9"/>
<path fill-rule="evenodd" clip-rule="evenodd" d="M0.555556 19.4439C0.408222 19.4439 0.266928 19.5025 0.162745 19.6067C0.0585619 19.7108 2.21843e-05 19.8521 0 19.9995V23.3331C2.21843e-05 23.4804 0.0585619 23.6217 0.162745 23.7259C0.266928 23.83 0.408222 23.8886 0.555556 23.8886H29.4444C29.5918 23.8886 29.7331 23.83 29.8373 23.7259C29.9414 23.6217 30 23.4804 30 23.3331V19.9995C30 19.8521 29.9414 19.7108 29.8373 19.6067C29.7331 19.5025 29.5918 19.4439 29.4444 19.4439H0.555556ZM1.11111 20.5551H28.8889V22.7775H1.11111V20.5551Z" fill="#32B4D9"/>
<path fill-rule="evenodd" clip-rule="evenodd" d="M20.5556 11.6659V19.9995H21.6667V11.6659H20.5556Z" fill="#32B4D9"/>
<path fill-rule="evenodd" clip-rule="evenodd" d="M25 11.6659V19.9995H26.1111V11.6659H25Z" fill="#32B4D9"/>
<path fill-rule="evenodd" clip-rule="evenodd" d="M12.2222 11.6659V19.9995H13.3333V11.6659H12.2222Z" fill="#32B4D9"/>
<path fill-rule="evenodd" clip-rule="evenodd" d="M16.6667 11.6659V19.9995H17.7778V11.6659H16.6667Z" fill="#32B4D9"/>
<path fill-rule="evenodd" clip-rule="evenodd" d="M3.88889 11.6659V19.9995H5V11.6659H3.88889Z" fill="#32B4D9"/>
<path fill-rule="evenodd" clip-rule="evenodd" d="M8.33333 11.6659V19.9995H9.44444V11.6659H8.33333Z" fill="#32B4D9"/>
<path fill-rule="evenodd" clip-rule="evenodd" d="M20.5556 23.3331V29.4444C20.5556 29.5918 20.6141 29.7331 20.7183 29.8372C20.8225 29.9414 20.9638 30 21.1111 30H25.5556C25.7029 30 25.8442 29.9414 25.9484 29.8372C26.0525 29.7331 26.1111 29.5918 26.1111 29.4444V23.3331H25V28.8889H21.6667V23.3331H20.5556Z" fill="#32B4D9"/>
<path fill-rule="evenodd" clip-rule="evenodd" d="M12.2222 23.3331V29.4444C12.2222 29.5918 12.2808 29.7331 12.385 29.8372C12.4892 29.9414 12.6304 30 12.7778 30H17.2222C17.3696 30 17.5109 29.9414 17.615 29.8372C17.7192 29.7331 17.7778 29.5918 17.7778 29.4444V23.3331H16.6667V28.8889H13.3333V23.3331H12.2222Z" fill="#32B4D9"/>
<path fill-rule="evenodd" clip-rule="evenodd" d="M3.88889 23.3331V29.4444C3.88891 29.5918 3.94745 29.7331 4.05163 29.8372C4.15582 29.9414 4.29711 30 4.44444 30H8.88889C9.03622 30 9.17752 29.9414 9.2817 29.8372C9.38588 29.7331 9.44442 29.5918 9.44444 29.4444V23.3331H8.33333V28.8889H5V23.3331H3.88889Z" fill="#32B4D9"/>
</svg>
