<svg width="30" height="30" viewBox="0 0 30 30" fill="none" xmlns="http://www.w3.org/2000/svg">
<path d="M29.4425 0H25.7844C25.4303 0 25.1353 0.294118 25.1353 0.647059V3.23529C24.4863 2.70588 23.7192 2.41176 22.8342 2.41176H7.31638C6.49034 2.41176 5.6643 2.70588 5.01526 3.23529V0.647059C5.01526 0.294118 4.72025 0 4.36623 0H0.649034C0.295015 0 0 0.294118 0 0.647059V29.3529C0 29.7059 0.295015 30 0.649034 30H4.30723C4.66124 30 4.95626 29.7059 4.95626 29.3529V27.5882H25.0173V29.3529C25.0173 29.7059 25.3123 30 25.6663 30H29.3245C29.6786 30 29.9736 29.7059 29.9736 29.3529V0.647059C30.0916 0.294118 29.7966 0 29.4425 0ZM28.7345 1.29412V28.6471H26.3744V1.29412H28.7345ZM25.0763 6.05882V26.2353H5.01526V6.05882C5.01526 4.82353 6.01832 3.76471 7.31638 3.76471H22.7752C24.0733 3.76471 25.0763 4.82353 25.0763 6.05882ZM3.65819 1.29412V28.6471H1.29807V1.29412H3.65819Z" fill="#32B4D9"/>
<path d="M21.6541 5.82353H8.43744C7.6704 5.82353 7.02137 6.47059 7.02137 7.23529V23.5294C7.02137 23.8824 7.31638 24.1765 7.6704 24.1765H22.4212C22.7752 24.1765 23.0702 23.8824 23.0702 23.5294V7.23529C23.0702 6.47059 22.4802 5.82353 21.6541 5.82353ZM21.7721 19.2941V22.8235H18.232L21.7721 19.2941ZM21.7721 12.7647V17.4118L16.3439 22.8235H11.6826L21.7721 12.7647ZM8.31944 11.2353V7.23529C8.31944 7.17647 8.37844 7.17647 8.37844 7.17647H12.3907L8.31944 11.2353ZM8.31944 17.7647V13.1176L14.2787 7.17647H18.94L8.31944 17.7647ZM21.7721 7.23529V10.8824L9.79451 22.8235H8.31944V19.6471L20.8281 7.17647H21.6541C21.7131 7.17647 21.7721 7.17647 21.7721 7.23529Z" fill="#32B4D9"/>
</svg>
