<svg width="30" height="28" viewBox="0 0 30 28" fill="none" xmlns="http://www.w3.org/2000/svg">
<path d="M6.48199 14.3568C2.89279 14.3568 0 17.2496 0 20.8388C0 24.428 2.89279 27.3208 6.48199 27.3208C10.0712 27.3208 12.964 24.428 12.964 20.8388C12.964 17.2496 10.0712 14.3568 6.48199 14.3568ZM6.48199 16.0175C9.10693 16.0175 11.2497 18.1603 11.2497 20.7852C11.2497 23.4102 9.10693 25.553 6.48199 25.553C3.85705 25.553 1.71424 23.4102 1.71424 20.7852C1.71424 18.2138 3.85705 16.0175 6.48199 16.0175Z" fill="#32B4D9"/>
<path d="M21.5352 6.48199C21.4816 2.89279 18.5888 0 14.9996 0C11.4104 0 8.51765 2.89279 8.51765 6.48199C8.51765 10.0712 11.4104 12.964 14.9996 12.964C18.5888 12.964 21.5352 10.0712 21.5352 6.48199ZM14.9996 1.71424C17.6246 1.71424 19.7674 3.85705 19.7674 6.48199C19.7674 9.10692 17.6246 11.2497 14.9996 11.2497C12.3747 11.2497 10.2319 9.10692 10.2319 6.48199C10.2319 3.85705 12.3747 1.71424 14.9996 1.71424Z" fill="#32B4D9"/>
<path d="M23.5173 14.3568C19.9281 14.3568 17.0353 17.2496 17.0353 20.8388C17.0353 24.428 19.9817 27.3208 23.5173 27.3208C27.1065 27.3208 29.9993 24.428 29.9993 20.8388C30.0529 17.2496 27.1065 14.3568 23.5173 14.3568ZM28.3386 20.8388C28.3386 23.4637 26.1958 25.6065 23.5173 25.6065C22.2316 25.6065 21.0531 25.1244 20.1424 24.2137C19.2317 23.303 18.7496 22.1245 18.7496 20.8388C18.7496 19.5531 19.2317 18.3746 20.1424 17.4639C21.0531 16.5532 22.2316 16.071 23.5173 16.071C26.1958 16.0175 28.3386 18.2138 28.3386 20.8388Z" fill="#32B4D9"/>
</svg>
