<svg width="30" height="30" viewBox="0 0 30 30" fill="none" xmlns="http://www.w3.org/2000/svg">
<path d="M19.6329 16.3247L19.6329 16.3246L19.6305 16.3229C19.1647 15.9891 18.5264 16.0192 18.1204 16.4265L16.8705 17.6809C16.8702 17.6809 16.8699 17.681 16.8696 17.681C16.8652 17.6818 16.8598 17.6823 16.8535 17.6826C15.8273 17.2675 14.8924 16.6781 14.1331 15.8868L14.1331 15.8868L14.1315 15.8852C13.3377 15.0886 12.7489 14.1747 12.3355 13.1418L13.5625 11.8804C13.9631 11.478 14.0326 10.837 13.6627 10.3634L11.7753 7.83805L11.7753 7.83804L11.7744 7.83683C11.4383 7.39841 10.8679 7.26608 10.3698 7.46603L10.3697 7.46591L10.3645 7.46831L8.05787 8.52044C7.58465 8.72467 7.31838 9.231 7.3852 9.73394L7.38517 9.73394L7.38561 9.73678C7.62707 11.2814 8.50226 15.1618 11.6162 18.3169L11.7051 18.2291L11.6162 18.3169C14.7607 21.5028 18.6584 22.3812 20.228 22.6235L20.2374 22.625H20.247H20.2472H20.2474H20.2476H20.2477H20.2479H20.2481H20.2483H20.2484H20.2486H20.2488H20.249H20.2491H20.2493H20.2495H20.2497H20.2499H20.25H20.2502H20.2504H20.2506H20.2507H20.2509H20.2511H20.2513H20.2514H20.2516H20.2518H20.252H20.2521H20.2523H20.2525H20.2527H20.2528H20.253H20.2532H20.2534H20.2535H20.2537H20.2539H20.2541H20.2542H20.2544H20.2546H20.2548H20.2549H20.2551H20.2553H20.2555H20.2556H20.2558H20.256H20.2562H20.2563H20.2565H20.2567H20.2569H20.2571H20.2572H20.2574H20.2576H20.2578H20.2579H20.2581H20.2583H20.2585H20.2586H20.2588H20.259H20.2592H20.2593H20.2595H20.2597H20.2599H20.26H20.2602H20.2604H20.2606H20.2607H20.2609H20.2611H20.2613H20.2614H20.2616H20.2618H20.262H20.2621H20.2623H20.2625H20.2627H20.2628H20.263H20.2632H20.2634H20.2635H20.2637H20.2639H20.2641H20.2643H20.2644H20.2646H20.2648H20.265H20.2651H20.2653H20.2655H20.2657H20.2658H20.266H20.2662H20.2664H20.2665H20.2667H20.2669H20.2671H20.2672H20.2674H20.2676H20.2678H20.2679H20.2681H20.2683H20.2685H20.2686H20.2688H20.269H20.2692H20.2693H20.2695H20.2697H20.2699H20.27H20.2702H20.2704H20.2706H20.2707H20.2709H20.2711H20.2713H20.2715H20.2716H20.2718H20.272H20.2722H20.2723H20.2725H20.2727H20.2729H20.273H20.2732H20.2734H20.2736H20.2737H20.2739H20.2741H20.2743H20.2744H20.2746H20.2748H20.275H20.2751H20.2753H20.2755H20.2757H20.2758H20.276H20.2762H20.2764H20.2765H20.2767H20.2769H20.2771H20.2772H20.2774H20.2776H20.2778H20.2779H20.2781H20.2783H20.2785H20.2787H20.2788H20.279H20.2792H20.2794H20.2795H20.2797H20.2799H20.2801H20.2802H20.2804H20.2806H20.2808H20.2809H20.2811H20.2813H20.2815H20.2816H20.2818H20.282H20.2822H20.2823H20.2825H20.2827H20.2829H20.283H20.2832H20.2834H20.2836H20.2837H20.2839H20.2841H20.2843H20.2844H20.2846H20.2848H20.285H20.2851H20.2853H20.2855H20.2857H20.2859H20.286H20.2862H20.2864H20.2866H20.2867H20.2869H20.2871H20.2873H20.2874H20.2876H20.2878H20.288H20.2881H20.2883H20.2885H20.2887H20.2888H20.289H20.2892H20.2894H20.2895H20.2897H20.2899H20.2901H20.2902H20.2904H20.2906H20.2908H20.2909H20.2911H20.2913H20.2915H20.2916H20.2918H20.292H20.2922H20.2923H20.2925H20.2927H20.2929H20.2931H20.2932H20.2934H20.2936H20.2938H20.2939H20.2941H20.2943H20.2945H20.2946H20.2948H20.295H20.2952H20.2953H20.2955H20.2957H20.2959H20.296H20.2962H20.2964H20.2966H20.2967H20.2969H20.2971H20.2973H20.2974H20.2976H20.2978H20.298H20.2981H20.2983H20.2985H20.2987H20.2988H20.299H20.2992H20.2994H20.2996H20.2997H20.2999H20.3001H20.3003H20.3004H20.3006H20.3008H20.301H20.3011H20.3013H20.3015H20.3017H20.3018H20.302H20.3022H20.3024H20.3025H20.3027H20.3029H20.3031H20.3032H20.3034H20.3036H20.3038H20.3039H20.3041H20.3043H20.3045H20.3046H20.3048H20.305H20.3052H20.3053H20.3055H20.3057H20.3059H20.306H20.3062H20.3064H20.3066H20.3068H20.3069H20.3071H20.3073H20.3075H20.3076H20.3078H20.308H20.3082H20.3083H20.3085H20.3087H20.3089H20.309H20.3092H20.3094H20.3096H20.3097H20.3099H20.3101H20.3103H20.3104H20.3106H20.3108H20.311H20.3111H20.3113H20.3115H20.3117H20.3118H20.312H20.3122H20.3124H20.3125H20.3127H20.3129H20.3131H20.3132H20.3134H20.3136H20.3138H20.314H20.3141H20.3143H20.3145H20.3147H20.3148H20.315H20.3152H20.3154H20.3155H20.3157H20.3159H20.3161H20.3162H20.3164H20.3166H20.3168H20.3169H20.3171H20.3173H20.3175H20.3176H20.3178H20.318H20.3182H20.3183H20.3185H20.3187H20.3189H20.319H20.3192H20.3194H20.3196H20.3197H20.3199H20.3201H20.3203H20.3204H20.3206H20.3208H20.321H20.3212H20.3213H20.3215H20.3217H20.3219H20.322H20.3222H20.3224H20.3226H20.3227H20.3229H20.3231H20.3233H20.3234H20.3236H20.3238H20.324H20.3241H20.3243H20.3245H20.3247H20.3248H20.325H20.3252H20.3254H20.3255H20.3257H20.3259H20.3261H20.3262H20.3264H20.3266H20.3268H20.3269H20.3271H20.3273H20.3275H20.3276H20.3278H20.328H20.3282H20.3284H20.3285H20.3287H20.3289H20.3291H20.3292H20.3294H20.3296H20.3298H20.3299H20.3301H20.3303H20.3305H20.3306H20.3308H20.331H20.3312H20.3313H20.3315H20.3317H20.3319H20.332H20.3322H20.3324H20.3326H20.3327H20.3329H20.3331H20.3333H20.3334H20.3336H20.3338H20.334H20.3341H20.3343H20.3345H20.3347H20.3348H20.335H20.3352H20.3354H20.3356H20.3357H20.3359H20.3361H20.3363H20.3364H20.3366H20.3368H20.337H20.3371H20.3373H20.3375H20.3377H20.3378H20.338H20.3382H20.3384H20.3385H20.3387H20.3389H20.3391H20.3392H20.3394H20.3396H20.3398H20.3399H20.3401H20.3403H20.3405H20.3406H20.3408H20.341H20.3412H20.3413H20.3415H20.3417H20.3419H20.342H20.3422H20.3424H20.3426H20.3427H20.3429H20.3431H20.3433H20.3434H20.3436H20.3438H20.344H20.3441H20.3443H20.3445H20.3447H20.3448H20.345H20.3452H20.3454H20.3455H20.3457H20.3459H20.3461H20.3462H20.3464H20.3466H20.3468H20.3469H20.3471H20.3473H20.3474H20.3476H20.3478H20.348H20.3481H20.3483H20.3485H20.3487H20.3488H20.349H20.3492H20.3493H20.3495H20.3497H20.3499H20.35H20.3502H20.3504H20.3505H20.3507H20.3509H20.3511H20.3512H20.3514H20.3516H20.3517H20.3519H20.3521H20.3523H20.3524H20.3526H20.3528H20.3529H20.3531H20.3533H20.3534H20.3536H20.3538H20.354H20.3541H20.3543H20.3545H20.3546H20.3548H20.355H20.3551H20.3553H20.3555H20.3556H20.3558H20.356H20.3561H20.3563H20.3565H20.3566H20.3568H20.357H20.3571H20.3573H20.3575H20.3576H20.3578H20.358H20.3581H20.3583H20.3585H20.3586H20.3588H20.359H20.3591H20.3593H20.3595H20.3596H20.3598H20.36H20.3601H20.3603H20.3604H20.3606H20.3608H20.3609H20.3611H20.3613H20.3614H20.3616H20.3617H20.3619H20.3621H20.3622H20.3624H20.3625H20.3627H20.3629H20.363H20.3632H20.3633H20.3635H20.3637H20.3638H20.364H20.3641H20.3643H20.3645H20.3646H20.3648H20.3649H20.3651H20.3652H20.3654H20.3656H20.3657H20.3659H20.366H20.3662H20.3663H20.3665H20.3666H20.3668H20.367H20.3671H20.3673H20.3674H20.3676H20.3677H20.3679H20.368H20.3682H20.3683H20.3685H20.3686H20.3688H20.3689H20.3691H20.3692H20.3694H20.3695H20.3697H20.3698H20.37H20.3701H20.3703H20.3704H20.3706H20.3707H20.3709H20.371H20.3712H20.3713H20.3715H20.3716H20.3718H20.3719H20.3721H20.3722H20.3723H20.3725H20.3726H20.3728H20.3729H20.3731H20.3732H20.3734H20.3735H20.3736H20.3738H20.3739H20.3741H20.3742H20.3743H20.3745H20.3746H20.3748H20.3749H20.375H20.3752H20.3753H20.3755H20.3756H20.3757H20.3759H20.376H20.3762H20.3763H20.3764H20.3766H20.3767H20.3768H20.377H20.3771H20.3772H20.3774H20.3775H20.3776H20.3778H20.3779H20.378H20.3782H20.3783H20.3784H20.3786H20.3787H20.3788H20.379H20.3791H20.3792H20.3793H20.3795H20.3796H20.3797H20.3799H20.38H20.3801H20.3802H20.3804H20.3805H20.3806H20.3807H20.3809H20.381H20.3811H20.3812H20.3813H20.3815H20.3816H20.3817H20.3818H20.382H20.3821H20.3822H20.3823H20.3824H20.3826H20.3827H20.3828H20.3829H20.383H20.3831H20.3833H20.3834H20.3835H20.3836H20.3837H20.3838H20.384H20.3841H20.3842H20.3843H20.3844H20.3845H20.3846H20.3847H20.3849H20.385H20.3851H20.3852H20.3853H20.3854H20.3855H20.3856H20.3857H20.3858H20.3859H20.386H20.3862H20.3863H20.3864H20.3865H20.3866H20.3867H20.3868H20.3869H20.387H20.3871H20.3872H20.3873H20.3874H20.3875H20.3876H20.3877H20.3878H20.3879H20.388H20.3881H20.3882H20.3883H20.3884H20.3885H20.3886H20.3887H20.3888H20.3888H20.3889H20.389H20.3891H20.3892H20.3893H20.3894H20.3895H20.3896H20.3897H20.3898H20.3898H20.3899H20.39H20.3901H20.3902H20.3903H20.3904H20.3905H20.3905H20.3906H20.3907H20.3908H20.3909H20.391H20.391H20.3911H20.3912H20.3913H20.3914H20.3914H20.3915H20.3916H20.3917H20.3917H20.3918H20.3919H20.392H20.3921H20.3921H20.3922H20.3923H20.3923H20.3924H20.3925H20.3926H20.3926H20.3927H20.3928H20.3928H20.3929H20.393H20.393H20.3931H20.3932H20.3932H20.3933H20.3934H20.3934H20.3935H20.3936H20.3936H20.3937H20.3938H20.3938H20.3939H20.3939H20.394H20.3941H20.3941H20.3942H20.3942H20.3943H20.3943H20.3944H20.3945H20.3945H20.3946H20.3946H20.3947H20.3947H20.3948H20.3948H20.3949H20.3949H20.395H20.395H20.3951H20.3951H20.3952H20.3952H20.3953H20.3953H20.3953H20.3954H20.3954H20.3955H20.3955H20.3956H20.3956H20.3956H20.3957H20.3957H20.3958H20.3958H20.3958H20.3959H20.3959H20.3959H20.396H20.396H20.396H20.3961H20.3961H20.3961H20.3962H20.3962H20.3962H20.3963H20.3963H20.3963H20.3963H20.3964H20.3964H20.3964H20.3964H20.3965H20.3965H20.3965H20.3965H20.3966H20.3966H20.3966H20.3966H20.3966H20.3967H20.3967H20.3967H20.3967H20.3967H20.3967H20.3968H20.3968H20.3968H20.3968H20.3968H20.3968H20.3968H20.3968H20.3968H20.3969H20.3969H20.3969H20.3969H20.3969H20.3969C20.8386 22.625 21.2391 22.3532 21.4379 21.9542L21.4379 21.9542L21.4391 21.9518L22.518 19.666L22.5181 19.666L22.5196 19.6626C22.7511 19.1316 22.5893 18.5258 22.1486 18.2181L19.6329 16.3247ZM11.4678 12.2448L11.4678 12.2448L11.4667 12.2459C11.1327 12.5812 11.0311 13.0542 11.1988 13.4917C11.6548 14.6815 12.3539 15.7489 13.265 16.6632C14.1774 17.5787 15.2409 18.249 16.423 18.7357L16.423 18.7357L16.4256 18.7367C16.8621 18.9052 17.334 18.8031 17.6681 18.4677L18.9144 17.2171L21.4238 19.1059L21.4225 19.1087L20.3492 21.4125L20.3462 21.4125C18.971 21.2015 15.5042 20.4523 12.631 17.6879L12.623 17.6802L12.6138 17.6741C12.5819 17.6527 12.5526 17.6243 12.5171 17.585C12.5078 17.5747 12.4975 17.5631 12.4866 17.5507C12.4591 17.5196 12.4271 17.4832 12.3931 17.4491L12.2444 17.2999C9.52194 14.4187 8.74486 10.9429 8.53379 9.5909C8.5338 9.59085 8.53381 9.59082 8.53382 9.59081L8.53428 9.58988C8.53489 9.58886 8.53641 9.58659 8.54007 9.58243C8.54074 9.58167 8.54142 9.5809 8.54214 9.58012L10.7997 8.507L10.7997 8.50702L10.8021 8.50583C10.8097 8.50204 10.8159 8.49893 10.8211 8.49633C10.8242 8.49932 10.8275 8.50255 10.8311 8.50617L12.706 11.0148C12.7078 11.0191 12.709 11.023 12.7099 11.0264C12.71 11.0269 12.7101 11.0273 12.7102 11.0278L11.4678 12.2448ZM15.6563 12.8154H15.6555L15.657 12.8291C15.6926 13.1501 15.945 13.4216 16.2608 13.4216C16.581 13.4216 16.8252 13.666 16.8252 13.9883C16.8252 14.2976 17.0905 14.5645 17.3997 14.5645C17.709 14.5645 17.9743 14.2976 17.9743 13.9883C17.9743 13.0174 17.1994 12.2392 16.2308 12.2392C15.9216 12.2392 15.6563 12.5061 15.6563 12.8154ZM16.2608 11.7974C17.4502 11.7974 18.4137 12.7637 18.4137 13.9583C18.4137 14.2675 18.679 14.5344 18.9882 14.5344C19.2975 14.5344 19.5628 14.2675 19.5628 13.9583C19.5628 12.1151 18.0686 10.6151 16.2308 10.6151C15.9216 10.6151 15.6563 10.882 15.6563 11.1912C15.6563 11.352 15.7351 11.5025 15.8426 11.6103C15.95 11.7181 16.1001 11.7974 16.2608 11.7974ZM16.2608 10.4139C18.1995 10.4139 19.7924 12.0118 19.7924 13.9583C19.7924 14.2675 20.0577 14.5344 20.3669 14.5344C20.6762 14.5344 20.9415 14.2675 20.9415 13.9583C20.9415 11.3632 18.8179 9.23155 16.2308 9.23155C15.9216 9.23155 15.6563 9.49847 15.6563 9.8077C15.6563 9.96851 15.7351 10.119 15.8426 10.2268C15.95 10.3346 16.1001 10.4139 16.2608 10.4139Z" fill="#32B4D9" stroke="#32B4D9" stroke-width="0.25"/>
<rect x="0.75" y="0.75" width="28.5" height="28.5" rx="14.25" stroke="#32B4D9" stroke-width="1.5"/>
</svg>
