<svg width="128" height="30" viewBox="0 0 128 30" fill="none" xmlns="http://www.w3.org/2000/svg">
<path d="M44.0541 9.47608H41.6017C41.4442 9.47608 41.3092 9.52164 41.1967 9.63554C41.0842 9.74943 41.0392 9.8861 41.0392 10.0456V15.7403H34.9418V10.0456C34.9418 9.8861 34.8968 9.74943 34.7843 9.63554C34.6718 9.52164 34.5368 9.47608 34.3793 9.47608H31.9269C31.7694 9.47608 31.6344 9.52164 31.5219 9.63554C31.4094 9.74943 31.3644 9.8861 31.3644 10.0456V24.8519C31.3644 25.0114 31.4094 25.1481 31.5219 25.262C31.6344 25.3759 31.7694 25.4214 31.9269 25.4214H34.3793C34.5368 25.4214 34.6718 25.3759 34.7843 25.262C34.8968 25.1481 34.9418 25.0114 34.9418 24.8519V18.9749H41.0392V24.8519C41.0392 25.0114 41.0842 25.1481 41.1967 25.262C41.3092 25.3759 41.4442 25.4214 41.6017 25.4214H44.0541C44.2116 25.4214 44.3466 25.3759 44.4591 25.262C44.5716 25.1481 44.6166 25.0114 44.6166 24.8519V10.0456C44.6166 9.8861 44.5716 9.74943 44.4591 9.63554C44.3466 9.54442 44.2116 9.47608 44.0541 9.47608Z" fill="#32B4D9"/>
<path d="M61.3563 9.47608H59.1513C58.9713 9.47608 58.8139 9.52164 58.7014 9.58998C58.5889 9.68109 58.4989 9.77221 58.4314 9.86333L51.524 19.8861V10.0456C51.524 9.8861 51.479 9.74943 51.3665 9.63554C51.254 9.52164 51.119 9.47608 50.9615 9.47608H48.5091C48.3516 9.47608 48.2391 9.52164 48.1041 9.63554C47.9916 9.74943 47.9241 9.8861 47.9241 10.0456V24.8519C47.9241 25.0114 47.9691 25.1253 48.0816 25.262C48.1941 25.3759 48.3291 25.4442 48.4866 25.4442H50.714C50.9165 25.4442 51.074 25.3986 51.1865 25.3075C51.299 25.2164 51.3665 25.1253 51.4115 25.0342L58.3189 15.3303V24.8747C58.3189 25.0342 58.3639 25.1708 58.4989 25.2847C58.6114 25.3986 58.7463 25.4442 58.9038 25.4442H61.3563C61.5138 25.4442 61.6488 25.3986 61.7613 25.2847C61.8738 25.1708 61.9188 25.0342 61.9188 24.8747V10.0683C61.9188 9.90888 61.8738 9.77221 61.7613 9.65831C61.6488 9.54442 61.5138 9.47608 61.3563 9.47608Z" fill="#32B4D9"/>
<path d="M79.7834 9.47608H77.691C77.466 9.47608 77.286 9.54442 77.196 9.65831C77.0835 9.77221 77.016 9.86333 76.971 9.93166L72.7861 17.6538L68.6462 9.93166C68.6012 9.86333 68.5337 9.77221 68.4212 9.65831C68.3087 9.54442 68.1512 9.47608 67.9262 9.47608H65.8337C65.6762 9.47608 65.5637 9.52164 65.4287 9.63554C65.3162 9.74943 65.2487 9.8861 65.2487 10.0456V24.8519C65.2487 25.0114 65.2937 25.1481 65.4287 25.262C65.5412 25.3759 65.6762 25.4214 65.8337 25.4214H68.1287C68.2862 25.4214 68.3987 25.3759 68.5112 25.262C68.6237 25.1481 68.6687 25.0114 68.6687 24.8519V15.6492L71.5261 21.0706C71.5936 21.2073 71.7061 21.3212 71.8186 21.4351C71.9311 21.549 72.0886 21.5945 72.2911 21.5945H73.3486C73.5511 21.5945 73.7086 21.549 73.8211 21.4351C73.9336 21.3212 74.0461 21.2073 74.1135 21.0706L76.9485 15.6492V24.8519C76.9485 25.0114 76.9935 25.1481 77.106 25.262C77.2185 25.3759 77.331 25.4214 77.4885 25.4214H79.7834C79.9409 25.4214 80.0759 25.3759 80.1884 25.262C80.3009 25.1481 80.3459 25.0114 80.3459 24.8519V10.0456C80.3459 9.8861 80.3009 9.74943 80.1884 9.63554C80.0759 9.54442 79.9409 9.47608 79.7834 9.47608Z" fill="#32B4D9"/>
<path d="M92.2032 10.0911C92.1582 9.93166 92.0682 9.77221 91.9332 9.65831C91.7982 9.54442 91.6182 9.47608 91.3707 9.47608H88.4908C88.2433 9.47608 88.0633 9.54442 87.9283 9.65831C87.7933 9.77221 87.7033 9.93166 87.6583 10.0911L82.3034 24.738C82.2809 24.8064 82.2809 24.8747 82.2809 24.9431C82.2809 25.0569 82.3259 25.1708 82.4159 25.262C82.5059 25.3531 82.6184 25.4214 82.7534 25.4214H85.0933C85.3183 25.4214 85.4758 25.3759 85.5883 25.262C85.7008 25.1481 85.7683 25.0569 85.7908 24.9658L86.7583 22.4146H93.1032L94.0707 24.9658C94.0932 25.0569 94.1607 25.1481 94.2732 25.262C94.3857 25.3759 94.5432 25.4214 94.7682 25.4214H97.1081C97.2431 25.4214 97.3556 25.3759 97.4456 25.262C97.5356 25.1708 97.5806 25.0569 97.5806 24.9431C97.5806 24.8747 97.5806 24.8064 97.5581 24.738L92.2032 10.0911ZM87.5908 19.4761L89.9307 12.9157L92.2482 19.4761H87.5908Z" fill="#32B4D9"/>
<path d="M107.975 17.1526L112.183 10.2278C112.25 10.1367 112.273 10.0456 112.273 9.95444C112.273 9.84055 112.228 9.72665 112.16 9.63554C112.07 9.54442 111.958 9.47608 111.823 9.47608H109.1C108.898 9.47608 108.718 9.52164 108.583 9.58998C108.448 9.68109 108.335 9.77221 108.268 9.90888L104.78 15.7403H103.115V10.0456C103.115 9.8861 103.07 9.74943 102.958 9.63554C102.845 9.52164 102.71 9.47608 102.553 9.47608H100.101C99.943 9.47608 99.8081 9.52164 99.6955 9.63554C99.5831 9.74943 99.5381 9.8861 99.5381 10.0456V24.8519C99.5381 25.0114 99.5831 25.1481 99.6955 25.262C99.8081 25.3759 99.943 25.4214 100.101 25.4214H102.553C102.71 25.4214 102.845 25.3759 102.958 25.262C103.07 25.1481 103.115 25.0114 103.115 24.8519V18.9749H104.915L108.628 25.0114C108.695 25.0797 108.763 25.1708 108.875 25.262C108.988 25.3531 109.145 25.4214 109.37 25.4214H112.183C112.318 25.4214 112.43 25.3759 112.543 25.262C112.633 25.1708 112.678 25.0342 112.678 24.8975C112.678 24.7836 112.655 24.7153 112.633 24.6469L107.975 17.1526Z" fill="#32B4D9"/>
<path d="M127.505 19.7722H124.94C124.76 19.7722 124.625 19.8178 124.513 19.8861C124.4 19.9772 124.333 20.1139 124.265 20.3417C124.063 21.2301 123.68 21.8223 123.14 22.164C122.6 22.5057 121.948 22.6651 121.16 22.6651C120.238 22.6651 119.495 22.4146 118.955 21.8907C118.415 21.3667 118.123 20.5239 118.078 19.3166C118.033 18.0182 118.033 16.7426 118.078 15.4897C118.123 14.2825 118.415 13.4396 118.955 12.9157C119.495 12.3918 120.238 12.1412 121.16 12.1412C121.948 12.1412 122.6 12.3007 123.118 12.6424C123.635 12.9841 124.018 13.5991 124.243 14.4875C124.31 14.6925 124.378 14.8519 124.49 14.9431C124.603 15.0342 124.738 15.0797 124.918 15.0797H127.482C127.618 15.0797 127.73 15.0342 127.82 14.9431C127.91 14.8519 127.978 14.738 127.978 14.6014C127.955 13.8041 127.775 13.0752 127.438 12.4146C127.1 11.754 126.65 11.1845 126.043 10.7062C125.435 10.2278 124.738 9.84055 123.905 9.58998C123.073 9.33941 122.173 9.20273 121.16 9.20273C119.788 9.20273 118.595 9.4533 117.605 9.93166C116.615 10.41 115.85 11.1162 115.31 12.0273C114.77 12.9385 114.455 14.0547 114.388 15.3531C114.365 16.0137 114.365 16.697 114.365 17.4032C114.365 18.1093 114.365 18.7927 114.388 19.4077C114.455 20.7289 114.748 21.8451 115.288 22.779C115.828 23.6902 116.593 24.3964 117.583 24.8747C118.573 25.3531 119.765 25.6036 121.183 25.6036C122.195 25.6036 123.095 25.467 123.928 25.2164C124.76 24.9658 125.458 24.5786 126.065 24.1002C126.673 23.6219 127.123 23.0524 127.46 22.3918C127.798 21.7312 127.978 21.0023 128 20.205C128 20.0683 127.955 19.9544 127.842 19.8633C127.752 19.8178 127.64 19.7722 127.505 19.7722Z" fill="#32B4D9"/>
<path d="M21.3071 6.40091L22.4996 5.71754L12.4423 0L11.2498 0.660592L12.4423 1.34396L21.3071 6.40091Z" fill="#DCDCDC"/>
<path d="M12.4423 18.4966V12.779V24.2825L22.4996 30V18.4966H12.4423Z" fill="#32B4D9"/>
<path d="M10.0573 11.4351L1.19248 6.40091L0 7.0615V18.4966L10.0573 12.779L11.2498 12.1185L10.0573 11.4351Z" fill="#DCDCDC"/>
<path d="M0 18.4966V30L10.0573 24.2825V18.4966H0Z" fill="#DCDCDC"/>
<path d="M0 18.4966H10.0573V12.779L0 18.4966Z" fill="#B3B3B3"/>
<path d="M22.4996 7.0615L21.3071 6.40091L12.4423 1.34396L11.2498 0.660592L10.0573 0L0 5.71754L1.19248 6.40091L10.0573 11.4351L11.2498 12.1185L12.4423 12.779L22.4996 18.4966V7.0615Z" fill="#32B4D9"/>
<path d="M22.4996 18.4966L12.4423 12.779V18.4966H22.4996Z" fill="#009DC1"/>
</svg>
