<svg width="25" height="26" viewBox="0 0 25 26" fill="none" xmlns="http://www.w3.org/2000/svg">
<path d="M3.94822 8.21088H5.84772V10.1104C5.84772 10.554 6.21068 10.917 6.6543 10.917C7.09792 10.917 7.46088 10.554 7.46088 10.1104V8.21088H9.36038C9.804 8.21088 10.167 7.84792 10.167 7.4043C10.167 6.96068 9.804 6.59772 9.36038 6.59772H7.46088V4.69822C7.46088 4.2546 7.09792 3.89164 6.6543 3.89164C6.21068 3.89164 5.84772 4.2546 5.84772 4.69822V6.59772H3.94822C3.5046 6.59772 3.14164 6.96068 3.14164 7.4043C3.14164 7.84792 3.5046 8.21088 3.94822 8.21088Z" fill="#32B4D9"/>
<path d="M21.8019 0.75H3.20213C1.43572 0.75 0 2.18572 0 3.95213V22.5479C0 24.3143 1.43572 25.75 3.20213 25.75H21.7979C23.5643 25.75 25 24.3143 25 22.5479V3.95213C25 2.18572 23.5643 0.75 21.7979 0.75H21.8019ZM3.20213 2.36316H11.6954V12.4454H1.61316V3.95213C1.61316 3.07699 2.32699 2.36316 3.20213 2.36316ZM1.61316 22.5479V14.0546H11.6954V24.1368H3.20213C2.32699 24.1368 1.61316 23.423 1.61316 22.5479ZM13.3086 24.1368V14.0546H23.3909V22.5479C23.3909 23.423 22.677 24.1368 21.8019 24.1368H13.3086ZM23.3909 12.4414H13.3086V2.36316H21.8019C22.677 2.36316 23.3909 3.07699 23.3909 3.95213V12.4454V12.4414Z" fill="#32B4D9"/>
<path d="M21.0558 6.59772H15.6477C15.2041 6.59772 14.8411 6.96068 14.8411 7.4043C14.8411 7.84792 15.2041 8.21088 15.6477 8.21088H21.0558C21.4994 8.21088 21.8624 7.84792 21.8624 7.4043C21.8624 6.96068 21.4994 6.59772 21.0558 6.59772Z" fill="#32B4D9"/>
<path d="M4.17003 21.58C4.47653 21.8865 5.00484 21.8865 5.31134 21.58L6.6543 20.237L7.99726 21.58C8.15051 21.7332 8.35215 21.8139 8.5659 21.8139C8.77964 21.8139 8.98129 21.7292 9.13857 21.5759C9.45314 21.2614 9.45314 20.7492 9.13857 20.4346L7.79561 19.0917L9.13857 17.7487C9.45314 17.4341 9.45314 16.922 9.13857 16.6074C8.824 16.2928 8.31182 16.2928 7.99726 16.6074L6.6543 17.9504L5.31134 16.6074C4.99677 16.2928 4.48459 16.2928 4.17003 16.6074C3.85546 16.922 3.85546 17.4341 4.17003 17.7487L5.51299 19.0917L4.17003 20.4346C3.85546 20.7492 3.85546 21.2614 4.17003 21.5759V21.58Z" fill="#32B4D9"/>
<path d="M21.0558 16.8574H15.6477C15.2041 16.8574 14.8411 17.2204 14.8411 17.664C14.8411 18.1076 15.2041 18.4706 15.6477 18.4706H21.0558C21.4994 18.4706 21.8624 18.1076 21.8624 17.664C21.8624 17.2204 21.4994 16.8574 21.0558 16.8574Z" fill="#32B4D9"/>
<path d="M21.0558 19.7289H15.6477C15.2041 19.7289 14.8411 20.0918 14.8411 20.5354C14.8411 20.9791 15.2041 21.342 15.6477 21.342H21.0558C21.4994 21.342 21.8624 20.9791 21.8624 20.5354C21.8624 20.0918 21.4994 19.7289 21.0558 19.7289Z" fill="#32B4D9"/>
</svg>
