<svg width="15" height="16" viewBox="0 0 15 16" fill="none" xmlns="http://www.w3.org/2000/svg">
<path d="M2.672 15.064C2.528 15.064 2.4 15.016 2.288 14.92C2.192 14.808 2.152 14.68 2.168 14.536L2.552 12.088H0.656C0.496 12.088 0.36 12.04 0.248 11.944C0.152 11.832 0.104 11.696 0.104 11.536V9.904C0.104 9.744 0.152 9.616 0.248 9.52C0.36 9.408 0.496 9.352 0.656 9.352H2.936L3.44 5.992H1.28C1.12 5.992 0.984 5.944 0.872 5.848C0.776 5.736 0.728 5.6 0.728 5.44V3.808C0.728 3.648 0.776 3.52 0.872 3.424C0.984 3.312 1.12 3.256 1.28 3.256H3.848L4.232 0.784C4.264 0.656 4.32 0.544 4.4 0.448C4.496 0.335999 4.624 0.279999 4.784 0.279999H6.416C6.56 0.279999 6.68 0.335999 6.776 0.448C6.888 0.544 6.936 0.664 6.92 0.808L6.56 3.256H9.296L9.68 0.784C9.712 0.656 9.768 0.544 9.848 0.448C9.944 0.335999 10.072 0.279999 10.232 0.279999H11.864C12.008 0.279999 12.128 0.335999 12.224 0.448C12.336 0.544 12.384 0.664 12.368 0.808L12.008 3.256H13.856C14.032 3.256 14.168 3.312 14.264 3.424C14.376 3.52 14.432 3.648 14.432 3.808V5.44C14.432 5.6 14.376 5.736 14.264 5.848C14.168 5.944 14.032 5.992 13.856 5.992H11.6L11.12 9.352H13.232C13.408 9.352 13.544 9.408 13.64 9.52C13.752 9.616 13.808 9.744 13.808 9.904V11.536C13.808 11.696 13.752 11.832 13.64 11.944C13.544 12.04 13.408 12.088 13.232 12.088H10.688L10.328 14.56C10.28 14.896 10.088 15.064 9.752 15.064H8.12C7.976 15.064 7.856 15.016 7.76 14.92C7.664 14.808 7.616 14.68 7.616 14.536L8 12.088H5.24L4.88 14.56C4.832 14.896 4.64 15.064 4.304 15.064H2.672ZM5.672 9.352H8.384L8.888 5.992H6.152L5.672 9.352Z" fill="white"/>
</svg>
