<svg width="17" height="17" viewBox="0 0 17 17" fill="none" xmlns="http://www.w3.org/2000/svg">
<path d="M3.79694 17C3.63694 17 3.50094 16.944 3.38894 16.832C3.27694 16.72 3.22094 16.584 3.22094 16.424V13.808H1.39694C1.23694 13.808 1.10094 13.752 0.988938 13.64C0.876938 13.528 0.820938 13.392 0.820938 13.232V12.488C0.820938 12.312 0.876938 12.176 0.988938 12.08C1.10094 11.968 1.23694 11.912 1.39694 11.912H3.22094V10.616H1.39694C1.23694 10.616 1.10094 10.56 0.988938 10.448C0.876938 10.336 0.820938 10.2 0.820938 10.04V8.696C0.820938 8.52 0.876938 8.384 0.988938 8.288C1.10094 8.176 1.23694 8.12 1.39694 8.12H3.22094V0.8C3.22094 0.623999 3.26894 0.479999 3.36494 0.368C3.47694 0.255999 3.62094 0.199999 3.79694 0.199999H10.2289C12.1649 0.199999 13.6849 0.655999 14.7889 1.568C15.8929 2.48 16.4449 3.808 16.4449 5.552C16.4449 7.216 15.8929 8.48 14.7889 9.344C13.6849 10.192 12.1649 10.616 10.2289 10.616H6.70094V11.912H10.5889C10.7649 11.912 10.9009 11.968 10.9969 12.08C11.1089 12.176 11.1649 12.312 11.1649 12.488V13.232C11.1649 13.392 11.1089 13.528 10.9969 13.64C10.9009 13.752 10.7649 13.808 10.5889 13.808H6.70094V16.424C6.70094 16.584 6.64494 16.72 6.53294 16.832C6.42094 16.944 6.27694 17 6.10094 17H3.79694ZM10.1089 8.12C11.0369 8.12 11.7409 7.904 12.2209 7.472C12.7169 7.024 12.9649 6.376 12.9649 5.528C12.9649 4.712 12.7249 4.072 12.2449 3.608C11.7809 3.128 11.0689 2.888 10.1089 2.888H6.65294V8.12H10.1089Z" fill="#32B4D9"/>
</svg>
