<svg width="17" height="17" viewBox="0 0 17 17" fill="none" xmlns="http://www.w3.org/2000/svg">
<path fill-rule="evenodd" clip-rule="evenodd" d="M-4.72876e-07 10.8181L-7.09315e-07 16.2272C-7.2796e-07 16.6538 0.346181 17 0.772727 17C1.19927 17 1.54545 16.6538 1.54545 16.2272L1.54545 10.8181C1.54545 10.3916 1.19927 10.0454 0.772728 10.0454C0.346181 10.0454 -4.54231e-07 10.3916 -4.72876e-07 10.8181ZM17 3.8721L17 3.8551C16.9985 3.7276 16.966 3.60705 16.9096 3.50119L16.9042 3.49114C16.8872 3.45946 16.8671 3.42932 16.8455 3.39996L14.5273 0.309053C14.2715 -0.0324928 13.787 -0.101266 13.4455 0.154507C13.1039 0.41028 13.0351 0.89478 13.2909 1.23633L14.6818 3.09087L2.31818 3.09087L3.70909 1.23632C3.96486 0.894779 3.89609 0.410279 3.55455 0.154506C3.213 -0.101266 2.7285 -0.0324933 2.47273 0.309052L0.154547 3.39996C0.13291 3.42932 0.11282 3.45946 0.0958193 3.49114L0.0904101 3.50119C0.0340002 3.60705 0.0015467 3.7276 -1.68512e-07 3.8551L-1.69255e-07 3.8721C0.00154668 3.9996 0.0340002 4.12014 0.09041 4.22601L0.0958193 4.23605C0.112819 4.26773 0.13291 4.29787 0.154547 4.32723L2.47273 7.41814C2.7285 7.75969 3.213 7.82846 3.55455 7.57269C3.89609 7.31691 3.96486 6.83241 3.70909 6.49087L2.31818 4.63632L14.6818 4.63632L13.2909 6.49087C13.0351 6.83241 13.1039 7.31692 13.4455 7.57269C13.787 7.82846 14.2715 7.75969 14.5273 7.41814L16.8455 4.32723C16.8671 4.29787 16.8872 4.26773 16.9042 4.23605L16.9096 4.22601C16.966 4.12014 16.9985 3.9996 17 3.8721ZM3.86364 10.8181L3.86364 16.2272C3.86364 16.6538 4.20982 17 4.63636 17C5.06291 17 5.40909 16.6538 5.40909 16.2272L5.40909 10.8181C5.40909 10.3916 5.06291 10.0454 4.63636 10.0454C4.20982 10.0454 3.86364 10.3916 3.86364 10.8181ZM7.72727 10.8181L7.72727 16.2272C7.72727 16.6538 8.07345 17 8.5 17C8.92655 17 9.27273 16.6538 9.27273 16.2272L9.27273 10.8181C9.27273 10.3916 8.92655 10.0454 8.5 10.0454C8.07345 10.0454 7.72727 10.3916 7.72727 10.8181ZM11.5909 10.8181L11.5909 16.2272C11.5909 16.6538 11.9371 17 12.3636 17C12.7902 17 13.1364 16.6538 13.1364 16.2272L13.1364 10.8181C13.1364 10.3916 12.7902 10.0454 12.3636 10.0454C11.9371 10.0454 11.5909 10.3916 11.5909 10.8181ZM15.4545 10.8181L15.4545 16.2272C15.4545 16.6538 15.8007 17 16.2273 17C16.6538 17 17 16.6538 17 16.2272L17 10.8181C17 10.3916 16.6538 10.0454 16.2273 10.0454C15.8007 10.0454 15.4545 10.3916 15.4545 10.8181Z" fill="#32B4D9"/>
</svg>
