<svg width="47" height="47" viewBox="0 0 47 47" fill="none" xmlns="http://www.w3.org/2000/svg">
<path d="M23.5 6.72232C14.245 6.72232 6.71259 14.2548 6.71259 23.5097C6.71259 32.7647 14.245 40.2971 23.5 40.2971C32.755 40.2971 40.2874 32.7647 40.2874 23.5097C40.2874 14.2548 32.7647 6.72232 23.5 6.72232ZM23.5 38.0686C15.4712 38.0686 8.94118 31.5385 8.94118 23.5097C8.94118 15.481 15.4712 8.95091 23.5 8.95091C31.5288 8.95091 38.0588 15.481 38.0588 23.5097C38.0588 31.5385 31.5288 38.0686 23.5 38.0686Z" fill="#32B4D9"/>
<path d="M24.6192 23.0426V13.0577C24.6192 12.4446 24.1228 11.9483 23.5097 11.9483C22.8966 11.9483 22.4003 12.4446 22.4003 13.0577V23.5097C22.4003 23.8017 22.5171 24.0936 22.7215 24.298L29.6894 31.266C29.9035 31.4801 30.176 31.5969 30.4777 31.5969C30.7794 31.5969 31.0519 31.4801 31.266 31.266C31.4801 31.0519 31.5969 30.7794 31.5969 30.4777C31.5969 30.176 31.4801 29.9035 31.266 29.6894L24.6192 23.0426Z" fill="#32B4D9"/>
<path d="M44.91 22.41C44.3067 22.41 43.8201 22.8966 43.8201 23.5C43.8201 34.7013 34.7111 43.8201 23.5 43.8201C12.2889 43.8201 3.18966 34.7111 3.18966 23.5C3.18966 12.2889 12.2987 3.18966 23.5 3.18966C30.0982 3.18966 36.3168 6.42063 40.122 11.8315C40.3945 12.2208 40.8908 12.396 41.3482 12.25C41.8056 12.104 42.117 11.6856 42.117 11.2087V6.00216C42.117 5.39879 41.6304 4.9122 41.027 4.9122C40.4237 4.9122 39.9371 5.39879 39.9371 6.00216V8.13343C35.6843 3.58867 29.7089 1 23.5 1C11.0919 1 1 11.0919 1 23.5C1 35.9081 11.0919 46 23.5 46C35.9081 46 46 35.9081 46 23.5C46 22.8966 45.5134 22.41 44.91 22.41Z" fill="#32B4D9"/>
<path d="M23.5 6.72232C14.245 6.72232 6.71259 14.2548 6.71259 23.5097C6.71259 32.7647 14.245 40.2971 23.5 40.2971C32.755 40.2971 40.2874 32.7647 40.2874 23.5097C40.2874 14.2548 32.7647 6.72232 23.5 6.72232ZM23.5 38.0686C15.4712 38.0686 8.94118 31.5385 8.94118 23.5097C8.94118 15.481 15.4712 8.95091 23.5 8.95091C31.5288 8.95091 38.0588 15.481 38.0588 23.5097C38.0588 31.5385 31.5288 38.0686 23.5 38.0686Z" stroke="#32B4D9" stroke-width="0.25"/>
<path d="M24.6192 23.0426V13.0577C24.6192 12.4446 24.1228 11.9483 23.5097 11.9483C22.8966 11.9483 22.4003 12.4446 22.4003 13.0577V23.5097C22.4003 23.8017 22.5171 24.0936 22.7215 24.298L29.6894 31.266C29.9035 31.4801 30.176 31.5969 30.4777 31.5969C30.7794 31.5969 31.0519 31.4801 31.266 31.266C31.4801 31.0519 31.5969 30.7794 31.5969 30.4777C31.5969 30.176 31.4801 29.9035 31.266 29.6894L24.6192 23.0426Z" stroke="#32B4D9" stroke-width="0.25"/>
<path d="M44.91 22.41C44.3067 22.41 43.8201 22.8966 43.8201 23.5C43.8201 34.7013 34.7111 43.8201 23.5 43.8201C12.2889 43.8201 3.18966 34.7111 3.18966 23.5C3.18966 12.2889 12.2987 3.18966 23.5 3.18966C30.0982 3.18966 36.3168 6.42063 40.122 11.8315C40.3945 12.2208 40.8908 12.396 41.3482 12.25C41.8056 12.104 42.117 11.6856 42.117 11.2087V6.00216C42.117 5.39879 41.6304 4.9122 41.027 4.9122C40.4237 4.9122 39.9371 5.39879 39.9371 6.00216V8.13343C35.6843 3.58867 29.7089 1 23.5 1C11.0919 1 1 11.0919 1 23.5C1 35.9081 11.0919 46 23.5 46C35.9081 46 46 35.9081 46 23.5C46 22.8966 45.5134 22.41 44.91 22.41Z" stroke="#32B4D9" stroke-width="0.25"/>
</svg>
