<svg width="21" height="22" viewBox="0 0 21 22" fill="none" xmlns="http://www.w3.org/2000/svg">
<path d="M14.9285 1C12.2296 1 10.0099 3.09677 9.8244 5.74726L6.85566 4.82459C6.79545 4.80747 6.73183 4.80238 6.66965 4.80971C6.63702 4.81138 1.33486 6.4467 1.33486 6.4467C1.14035 6.50717 0.997244 6.70435 1.00004 6.90803V20.5248C1.00061 20.8217 1.33409 21.0668 1.6176 20.9787L6.7143 19.4012L11.811 20.9787C11.9024 21.0071 12.0024 21.0071 12.0937 20.9787L17.3318 19.3566C17.5239 19.2968 17.6662 19.1039 17.6666 18.9027V11.0005C17.8743 10.752 18.0815 10.4987 18.2767 10.2415C19.2381 8.97529 20.022 7.60026 20.0476 6.11931C20.0476 6.11436 20.0476 6.10938 20.0476 6.10443C20.0476 3.28562 17.7483 1 14.9285 1ZM14.9285 1.95242C17.2319 1.95242 19.0911 3.79844 19.0952 6.09697V6.10441C19.0728 7.24635 18.4241 8.46737 17.5178 9.66114C16.7209 10.7108 15.7657 11.7217 14.9285 12.6672C14.0912 11.7209 13.1356 10.7195 12.3393 9.66858C11.4348 8.47487 10.7843 7.24681 10.7619 6.10441V6.09699C10.766 3.79755 12.6252 1.95242 14.9285 1.95242ZM14.9285 3.61918C13.5535 3.61918 12.4286 4.74417 12.4286 6.11931C12.4286 7.49445 13.5535 8.61943 14.9285 8.61943C16.3036 8.61943 17.4285 7.49445 17.4285 6.11931C17.4285 4.74417 16.3036 3.61918 14.9285 3.61918ZM14.9285 4.5716C15.7889 4.5716 16.4762 5.2589 16.4762 6.11931C16.4762 6.97972 15.7889 7.667 14.9285 7.667C14.0682 7.667 13.3809 6.97972 13.3809 6.11931C13.3809 5.2589 14.0682 4.5716 14.9285 4.5716ZM6.23811 5.93328V18.5455L1.95242 19.87V7.25775L6.23811 5.93328ZM7.19049 5.93328L9.86904 6.75922C10.0601 7.94275 10.7046 9.0522 11.4762 10.0927V19.87L7.19049 18.5455V5.93328ZM12.4286 11.2833C13.1704 12.15 13.9408 12.959 14.564 13.6866C14.7421 13.8935 15.1075 13.8935 15.2857 13.6866C15.711 13.19 16.2051 12.6589 16.7142 12.0943V18.5455L12.4286 19.87V11.2833Z" fill="#32B4D9" stroke="#32B4D9" stroke-width="0.2"/>
</svg>
