<svg width="50" height="43" viewBox="0 0 50 43" fill="none" xmlns="http://www.w3.org/2000/svg">
<path d="M49.9343 23.0616C50.0219 22.8174 50.0219 22.5504 49.9343 22.3062C47.6843 15.9735 43.0994 10.7355 37.1141 7.65983L39.3265 5.45236C39.435 5.34774 39.5216 5.22259 39.5811 5.08421C39.6407 4.94584 39.672 4.79701 39.6733 4.64641C39.6746 4.49582 39.6459 4.34647 39.5888 4.20708C39.5316 4.0677 39.4472 3.94106 39.3405 3.83457C39.2339 3.72808 39.107 3.64386 38.9673 3.58683C38.8277 3.52981 38.678 3.50111 38.5272 3.50242C38.3763 3.50373 38.2272 3.53501 38.0885 3.59446C37.9499 3.6539 37.8245 3.7403 37.7197 3.84863L34.9188 6.64314C32.1214 5.51569 29.1507 4.87609 26.1364 4.75223V1.13418C26.1364 0.83338 26.0167 0.544896 25.8036 0.332195C25.5905 0.119494 25.3014 0 25.0001 0C24.6987 0 24.4096 0.119494 24.1965 0.332195C23.9834 0.544896 23.8637 0.83338 23.8637 1.13418V4.75223C19.7273 4.92974 15.691 6.07697 12.0815 8.10102L6.48552 2.51562C6.2712 2.30902 5.98416 2.1947 5.68621 2.19728C5.38826 2.19987 5.10325 2.31915 4.89256 2.52944C4.68187 2.73972 4.56237 3.02419 4.55978 3.32157C4.55719 3.61895 4.67172 3.90545 4.87872 4.11936L10.0946 9.32526C5.45408 12.4781 1.94113 17.025 0.0657126 22.306C-0.0219042 22.5502 -0.0219042 22.8172 0.0657126 23.0614C1.34885 26.7004 3.41707 30.0138 6.12423 32.7673C8.83138 35.5209 12.1114 37.6474 15.7325 38.9966C19.3536 40.3458 23.2274 40.8848 27.0801 40.5755C30.9329 40.2661 34.6705 39.1161 38.029 37.2065L43.5146 42.6816C43.7289 42.8882 44.016 43.0025 44.3139 43C44.6119 42.9974 44.8969 42.8781 45.1076 42.6678C45.3182 42.4575 45.4377 42.173 45.4403 41.8757C45.4429 41.5783 45.3284 41.2918 45.1214 41.0779L40.0088 35.9751C44.5995 32.8236 48.0737 28.3035 49.9343 23.0616ZM25.0001 38.3919C20.0707 38.3867 15.2604 36.8799 11.212 34.0729C7.16369 31.2658 4.07026 27.2923 2.34523 22.6835C4.14447 17.878 7.43356 13.7711 11.7336 10.9609L15.4411 14.6611C13.4229 17.0483 12.3763 20.1047 12.5084 23.2254C12.6405 26.3461 13.9418 29.3035 16.1546 31.5121C18.3673 33.7208 21.3303 35.0198 24.4569 35.1518C27.5836 35.2838 30.6459 34.2393 33.0377 32.2251L36.3565 35.5369C32.8639 37.4063 28.9632 38.387 25.0001 38.3919ZM30.5879 26.572C31.5058 25.2631 31.9323 23.6733 31.7926 22.0818C31.653 20.4902 30.956 18.9987 29.8242 17.8689C28.6924 16.7392 27.198 16.0436 25.6034 15.9041C24.0088 15.7647 22.416 16.1904 21.1045 17.1064L18.6727 14.6793C20.6361 13.1262 23.103 12.3477 25.604 12.4917C28.1051 12.6356 30.4658 13.6922 32.2373 15.4603C34.0087 17.2283 35.0672 19.5846 35.2114 22.0809C35.3557 24.5772 34.5756 27.0393 33.0195 28.9989L30.5879 26.572ZM21.1287 20.3389L27.3499 26.5482C26.6438 26.9845 25.8305 27.2172 25.0001 27.2206C23.7949 27.2194 22.6395 26.741 21.7874 25.8905C20.9352 25.0399 20.4559 23.8867 20.4547 22.6839C20.4582 21.8551 20.6915 21.0435 21.1287 20.3389ZM22.7614 18.76C23.441 18.3634 24.2129 18.1521 25.0001 18.1472C26.2052 18.1484 27.3606 18.6268 28.2127 19.4773C29.0649 20.3279 29.5442 21.4811 29.5455 22.6839C29.5406 23.4695 29.329 24.24 28.9318 24.9183L22.7614 18.76ZM19.4859 18.6983C18.5315 20.0068 18.0766 21.6124 18.2031 23.226C18.3296 24.8396 19.0291 26.3551 20.1758 27.4996C21.3224 28.644 22.8408 29.3422 24.4575 29.4685C26.0741 29.5947 27.6829 29.1407 28.9939 28.1881L31.4257 30.6153C29.4637 32.2039 26.9815 33.0107 24.4585 32.8799C21.9355 32.749 19.5505 31.6899 17.764 29.9069C15.9775 28.1238 14.9162 25.7434 14.785 23.2252C14.6538 20.707 15.4621 18.2296 17.0537 16.2712L19.4859 18.6983ZM38.3706 34.3399L34.6405 30.6169C36.6191 28.2248 37.6335 25.1826 37.4855 22.0843C37.3376 18.9859 36.038 16.0538 33.8404 13.8604C31.6428 11.667 28.7051 10.3699 25.6008 10.2222C22.4965 10.0746 19.4486 11.087 17.052 13.0618L13.7545 9.77066C16.7911 8.1673 20.1357 7.22972 23.5646 7.02067C26.9935 6.81161 30.4276 7.3359 33.6371 8.55846C36.8465 9.78101 39.7574 11.6736 42.1749 14.1097C44.5924 16.5457 46.4607 19.469 47.6549 22.6839C45.8709 27.4503 42.6208 31.5306 38.3706 34.3399Z" fill="#32B4D9"/>
</svg>
