<svg width="45" height="50" viewBox="0 0 45 50" fill="none" xmlns="http://www.w3.org/2000/svg">
<path d="M0 41.6606V25.7534C0 23.4601 0.939066 21.3741 2.45076 19.863C3.96246 18.352 6.04927 17.4133 8.34352 17.4133H8.41122V1.05166C8.41122 0.4712 8.88262 0 9.46332 0H28.5415C29.1222 0 29.5936 0.4712 29.5936 1.05166V3.67089H32.0394C32.6201 3.67089 33.0915 4.14209 33.0915 4.72256V17.4133H36.6571C38.9489 17.4133 41.0344 18.352 42.5461 19.8624C44.0609 21.3772 45 23.4619 45 25.7534V41.6606C45 43.9545 44.0616 46.0398 42.5499 47.5509C41.0382 49.0619 38.952 50 36.6571 50H8.34352C6.05114 50 3.96556 49.0613 2.45387 47.5509C0.939066 46.0361 0 43.9514 0 41.6606ZM8.3429 23.6221C7.7622 23.6221 7.2908 23.1509 7.2908 22.5704C7.2908 21.99 7.7622 21.5188 8.3429 21.5188H36.6571C37.8148 21.5188 38.875 21.9987 39.6438 22.7672C40.4134 23.5327 40.8928 24.5931 40.8928 25.7534V26.8255H42.8958V25.7534C42.8958 24.0374 42.194 22.4773 41.0649 21.3468C39.9339 20.2182 38.3731 19.5166 36.6571 19.5166H28.7819C21.9693 19.5166 15.1561 19.5166 8.34352 19.5166C6.62873 19.5166 5.06797 20.2194 3.93762 21.3493C2.80726 22.4792 2.1042 24.0393 2.1042 25.7534V41.6606C2.1042 43.3759 2.80602 44.936 3.93513 46.0665C5.06611 47.1951 6.62687 47.8967 8.34352 47.8967H36.6571C38.3725 47.8967 39.9327 47.1945 41.063 46.0646C42.1934 44.9348 42.8958 43.3753 42.8958 41.6606V40.5884H40.8928V41.6606C40.8928 42.819 40.414 43.8769 39.6463 44.6448C38.8743 45.4159 37.816 45.8945 36.6571 45.8945H8.3429C7.7622 45.8945 7.2908 45.4233 7.2908 44.8429C7.2908 44.2624 7.7622 43.7912 8.3429 43.7912H36.6571C37.2397 43.7912 37.7738 43.5503 38.1613 43.1642C38.5476 42.7768 38.7886 42.2429 38.7886 41.6606V40.5884H34.2231C32.3301 40.5884 30.6078 39.8143 29.3607 38.5676C28.1136 37.321 27.3391 35.6001 27.3391 33.7073C27.3391 31.8144 28.1136 30.0929 29.3607 28.8463C30.6078 27.5997 32.3301 26.8255 34.2231 26.8255H38.7886V25.7534C38.7886 25.1723 38.5464 24.639 38.1589 24.2516C37.7744 23.863 37.2409 23.6221 36.6571 23.6221H8.3429ZM34.2231 30.3145C35.1591 30.3145 36.0087 30.6951 36.6223 31.3084L36.6826 31.3742C37.2608 31.9826 37.6167 32.8046 37.6167 33.7066C37.6167 34.6422 37.2359 35.4915 36.6223 36.1049C36.0087 36.7182 35.1591 37.0988 34.2231 37.0988C33.2896 37.0988 32.4419 36.7182 31.8276 36.1049C31.2103 35.4915 30.8295 34.6422 30.8295 33.7066C30.8295 32.7736 31.2103 31.9261 31.8239 31.3122C32.4419 30.6951 33.2896 30.3145 34.2231 30.3145ZM35.1355 32.7947C34.9032 32.5625 34.5796 32.4178 34.2231 32.4178C33.8654 32.4178 33.5418 32.5619 33.3089 32.7928C33.0778 33.0256 32.9338 33.3491 32.9338 33.7066C32.9338 34.063 33.0785 34.3864 33.3107 34.6186C33.5418 34.8514 33.8654 34.9955 34.2231 34.9955C34.5796 34.9955 34.9032 34.8508 35.1355 34.6186C35.3677 34.3864 35.5125 34.063 35.5125 33.7066C35.5125 33.3683 35.3839 33.0604 35.174 32.8313L35.1355 32.7947ZM10.5154 17.4133H11.9091V4.72256C11.9091 4.14209 12.3805 3.67089 12.9612 3.67089H27.4894V2.10333H10.5154V17.4133ZM19.3254 7.26791H25.6746C26.2553 7.26791 26.7267 7.73911 26.7267 8.31957C26.7267 8.88638 26.9571 9.40041 27.3273 9.7698C27.7037 10.1423 28.2173 10.3739 28.7819 10.3739C29.3626 10.3739 29.834 10.8451 29.834 11.4255V17.4133H30.9873V5.77422H14.0133V17.4133H15.166V11.4255C15.166 10.8451 15.6374 10.3739 16.2181 10.3739C16.7839 10.3739 17.2994 10.1429 17.6715 9.77228C18.0422 9.40042 18.2733 8.88514 18.2733 8.31957C18.2733 7.73911 18.7447 7.26791 19.3254 7.26791ZM24.7592 9.37124H20.2415C20.0508 10.0926 19.6701 10.7395 19.1564 11.2529C18.6391 11.7701 17.9919 12.1506 17.2702 12.3412V17.4133H27.7298V12.3412C27.0062 12.1513 26.3584 11.7701 25.8442 11.256C25.3318 10.7401 24.9498 10.0926 24.7592 9.37124ZM42.8958 28.9288H34.2231C32.9095 28.9288 31.714 29.4665 30.8476 30.3325C29.9812 31.1986 29.4433 32.3936 29.4433 33.7066C29.4433 35.0209 29.9812 36.2154 30.8476 37.0814C31.714 37.9475 32.9095 38.4851 34.2231 38.4851H42.8958V28.9288Z" fill="#32B4D9"/>
</svg>
