<svg width="22" height="18" viewBox="0 0 22 18" fill="none" xmlns="http://www.w3.org/2000/svg">
<path d="M5.97222 10.1606C5.53263 9.53119 5.23957 8.81186 5.07473 8.03857C5.01978 7.84076 4.83662 7.67891 4.63514 7.67891H0.459059C0.184317 7.67891 -0.0354767 7.91269 0.0194717 8.16446C0.275898 10.2146 1.10012 12.0669 2.30899 13.5954C2.40057 13.7033 2.51047 13.7573 2.657 13.7573C2.76689 13.7573 2.89511 13.7033 2.98669 13.6134L5.9539 10.7001C6.10043 10.5742 6.10043 10.3404 5.97222 10.1606ZM2.73026 12.2107C2.03425 11.1857 1.57634 10.0527 1.31992 8.84783H4.04902C4.19555 9.35136 4.39703 9.8549 4.65346 10.3045L2.73026 12.2107Z" fill="#32B4D9"/>
<path d="M0.459059 6.09637H4.65346C4.85493 6.09637 5.03809 5.93452 5.09304 5.7367C5.25789 4.96341 5.55095 4.26206 5.99053 3.61466C6.10043 3.43483 6.10043 3.20104 5.93559 3.03919L2.96837 0.143867C2.87679 0.0539502 2.76689 0 2.63868 0C2.49215 0 2.38225 0.0539501 2.29067 0.16185C1.06349 1.69044 0.257582 3.54273 0.00115559 5.59283C-0.0171606 5.86258 0.184317 6.09637 0.459059 6.09637ZM2.73026 1.56455L4.67177 3.47079C4.41535 3.92038 4.21387 4.42391 4.06734 4.92745H1.31992C1.57634 3.72256 2.07088 2.58961 2.73026 1.56455Z" fill="#32B4D9"/>
<path d="M21.5409 7.67891H17.3465C17.1451 7.67891 16.9619 7.84076 16.907 8.03857C16.7421 8.81186 16.4491 9.51321 16.0095 10.1606C15.8996 10.3404 15.8996 10.5742 16.0644 10.7361L19.0316 13.6494C19.1232 13.7393 19.2331 13.7933 19.3613 13.7933C19.5078 13.7933 19.6177 13.7393 19.7093 13.6314C20.9365 12.1028 21.7424 10.2505 21.9988 8.20042C22.0172 7.91269 21.8157 7.67891 21.5409 7.67891ZM19.2697 12.2107L17.3282 10.3045C17.5847 9.8549 17.7861 9.35136 17.9327 8.84783H20.6618C20.4237 10.0527 19.9291 11.1857 19.2697 12.2107Z" fill="#32B4D9"/>
<path d="M9.81861 12.6783C9.03101 12.5164 8.31668 12.2287 7.6573 11.7971C7.58404 11.7432 7.49246 11.7252 7.40088 11.7252C7.29098 11.7252 7.16277 11.7791 7.10782 11.869L4.12229 14.7823C3.93913 14.9622 3.93913 15.2859 4.1406 15.4477C5.69748 16.6526 7.58404 17.4439 9.67208 17.6957C9.6904 17.6957 9.69039 17.6957 9.72703 17.6957C9.98345 17.6957 10.1666 17.4978 10.1666 17.2461V13.1099C10.1849 12.9121 10.0201 12.7322 9.81861 12.6783ZM8.99438 16.3829C7.7672 16.1311 6.61328 15.6635 5.56926 14.9981L7.51077 13.0919C7.96868 13.3437 8.48153 13.5415 8.99438 13.6854V16.3829Z" fill="#32B4D9"/>
<path d="M16.907 5.7367C16.9619 5.93452 17.1451 6.09637 17.3465 6.09637H21.5409C21.8157 6.09637 22.0355 5.86258 21.9805 5.61082C21.7241 3.56071 20.9182 1.70842 19.691 0.179834C19.5994 0.0719335 19.4895 0.0179834 19.343 0.0179834C19.2331 0.0179834 19.1049 0.0719335 19.0133 0.16185L16.0644 3.03919C15.8996 3.20104 15.8996 3.41684 16.0095 3.61466C16.4491 4.2261 16.7604 4.96341 16.907 5.7367ZM19.2697 1.56455C19.9658 2.58961 20.4237 3.72256 20.6801 4.92745H17.951C17.8044 4.42391 17.603 3.92038 17.3465 3.47079L19.2697 1.56455Z" fill="#32B4D9"/>
<path d="M14.9105 11.869C14.8189 11.7791 14.7273 11.7252 14.6174 11.7252C14.5259 11.7252 14.4343 11.7432 14.361 11.7971C13.7199 12.2107 12.9873 12.5164 12.1997 12.6783C11.9982 12.7322 11.8334 12.8761 11.8334 13.1099V17.2281C11.8334 17.4799 12.0349 17.6777 12.273 17.6777C12.2913 17.6777 12.2913 17.6777 12.3279 17.6777C14.3976 17.4439 16.3025 16.6346 17.8594 15.4297C18.0609 15.2679 18.0975 14.9442 17.8777 14.7644L14.9105 11.869ZM13.0056 16.3829V13.7033C13.5185 13.5595 14.0313 13.3617 14.4892 13.1099L16.4307 15.0161C15.3684 15.6635 14.2145 16.1311 13.0056 16.3829Z" fill="#32B4D9"/>
<path d="M14.6541 6.86965C14.6541 5.3051 12.566 1.76237 11.9066 0.701352C11.7235 0.377651 11.3755 0.197817 11.0092 0.197817C10.6428 0.197817 10.2948 0.395635 10.1117 0.701352C9.4706 1.74439 7.36425 5.28712 7.36425 6.86965C7.36425 8.84783 9.0127 10.4304 11.0275 10.4304C13.0422 10.4304 14.6541 8.84783 14.6541 6.86965ZM11.0092 9.31539C9.61713 9.31539 8.49985 8.21841 8.49985 6.85167C8.49985 5.70073 10.3498 2.51767 10.8993 1.54657L10.9908 1.38472L11.0641 1.54657C11.6502 2.49969 13.4635 5.68275 13.4635 6.85167C13.5002 8.20042 12.3646 9.31539 11.0092 9.31539Z" fill="#32B4D9"/>
<path d="M10.6062 4.74761C10.4047 4.63971 10.1483 4.67568 10.0018 4.89148C9.94682 4.96342 8.84785 6.72579 9.76366 8.11051C9.85524 8.21841 9.96514 8.29034 10.1117 8.29034C10.2032 8.29034 10.2765 8.27236 10.3498 8.21841C10.5329 8.07454 10.6062 7.84076 10.4597 7.62496C9.83692 6.68982 10.6978 5.32308 10.6978 5.32308C10.8809 5.10728 10.8077 4.85551 10.6062 4.74761Z" fill="#32B4D9"/>
</svg>
