<svg width="45" height="45" viewBox="0 0 45 45" fill="none" xmlns="http://www.w3.org/2000/svg">
<path d="M44.1947 19.0058L40.6421 17.8218C40.5191 17.7848 40.3916 17.7649 40.2632 17.7626H39.6118C39.212 16.3572 38.635 15.0084 37.8947 13.7486L38.3684 13.2868C38.4554 13.1961 38.5273 13.0922 38.5816 12.9789L40.2632 9.62804C40.3734 9.41348 40.4154 9.17037 40.3837 8.93126C40.3519 8.69215 40.2479 8.46843 40.0855 8.29005L36.7105 4.91547C36.5321 4.75311 36.3084 4.6491 36.0692 4.61735C35.8301 4.58561 35.587 4.62766 35.3724 4.73786L31.9737 6.37187C31.8573 6.42604 31.7527 6.50247 31.6658 6.59684L31.2039 7.05862C29.9541 6.34339 28.622 5.78277 27.2368 5.3891V4.73786C27.2539 4.61214 27.2539 4.48469 27.2368 4.35896L26.0526 0.806773C25.9702 0.561694 25.8099 0.350319 25.596 0.204931C25.3822 0.0595424 25.1267 -0.0118668 24.8684 0.00161027H20.1316C19.8833 0.000969501 19.6411 0.07836 19.4393 0.222843C19.2374 0.367326 19.086 0.571593 19.0066 0.806773L17.8224 4.35896C17.7855 4.48197 17.7655 4.60945 17.7632 4.73786V5.3891C16.3595 5.79415 15.0111 6.3708 13.7487 7.10599L13.2868 6.6442C13.1999 6.54983 13.0953 6.4734 12.9789 6.41923L9.62763 4.73786C9.41304 4.62766 9.16991 4.58561 8.93077 4.61735C8.69162 4.6491 8.46788 4.75311 8.28948 4.91547L4.91448 8.29005C4.75209 8.46843 4.64807 8.69215 4.61632 8.93126C4.58458 9.17037 4.62663 9.41348 4.73685 9.62804L6.37106 13.0263C6.42533 13.1396 6.49728 13.2435 6.58421 13.3342L7.0579 13.7959C6.33769 15.0432 5.77674 16.3758 5.38816 17.7626H4.73685C4.60842 17.7649 4.48093 17.7848 4.3579 17.8218L0.805267 19.0058C0.570058 19.0853 0.365765 19.2366 0.221264 19.4384C0.0767632 19.6403 -0.000636902 19.8824 3.94761e-06 20.1307V24.8669C-0.000636902 25.1152 0.0767632 25.3573 0.221264 25.5592C0.365765 25.761 0.570058 25.9124 0.805267 25.9918L4.3579 27.1759C4.48093 27.2128 4.60842 27.2327 4.73685 27.2351H5.38816C5.78798 28.6404 6.36498 29.9893 7.10527 31.249L6.63158 31.7108C6.54465 31.8015 6.4727 31.9054 6.41842 32.0187L4.73685 35.3696C4.62663 35.5841 4.58458 35.8272 4.61632 36.0663C4.64807 36.3055 4.75209 36.5292 4.91448 36.7076L8.28948 40.0821C8.46446 40.2573 8.68995 40.3732 8.93423 40.4135C9.1785 40.4539 9.42929 40.4167 9.65132 40.3071L13.0263 38.6257C13.1427 38.5716 13.2473 38.4951 13.3342 38.4008L13.7961 37.939C15.0434 38.6591 16.3762 39.22 17.7632 39.6085V40.2598C17.7655 40.3882 17.7855 40.5156 17.8224 40.6386L19.0066 44.1908C19.086 44.426 19.2374 44.6303 19.4393 44.7748C19.6411 44.9193 19.8833 44.9966 20.1316 44.996H24.8684C25.1167 44.9966 25.3589 44.9193 25.5607 44.7748C25.7626 44.6303 25.914 44.426 25.9934 44.1908L27.1776 40.6386C27.2145 40.5156 27.2345 40.3882 27.2368 40.2598V39.6085C28.6424 39.2087 29.9914 38.6318 31.2513 37.8916L31.7132 38.3534C31.8001 38.4478 31.9047 38.5242 32.0211 38.5784L35.3724 40.2598C35.587 40.37 35.8301 40.412 36.0692 40.3803C36.3084 40.3485 36.5321 40.2445 36.7105 40.0821L40.0855 36.7076C40.2479 36.5292 40.3519 36.3055 40.3837 36.0663C40.4154 35.8272 40.3734 35.5841 40.2632 35.3696L38.6289 31.9713C38.5747 31.858 38.5027 31.7541 38.4158 31.6635L37.9421 31.2017C38.6623 29.9544 39.2233 28.6218 39.6118 27.2351H40.2632C40.3916 27.2327 40.5191 27.2128 40.6421 27.1759L44.1947 25.9918C44.4299 25.9124 44.6342 25.761 44.7787 25.5592C44.9232 25.3573 45.0006 25.1152 45 24.8669V20.1307C45.0006 19.8824 44.9232 19.6403 44.7787 19.4384C44.6342 19.2366 44.4299 19.0853 44.1947 19.0058ZM42.6316 24.0144L40.0737 24.8669H38.6882C38.4128 24.8608 38.1439 24.9509 37.9277 25.1216C37.7116 25.2923 37.5617 25.533 37.5039 25.8023C37.1286 27.5743 36.4344 29.2634 35.4553 30.7872C35.3093 31.0157 35.2461 31.2872 35.2763 31.5566C35.3065 31.826 35.4282 32.0769 35.6211 32.2673L36.6039 33.2501L37.7882 35.6182L35.6447 37.7614L33.2763 36.5773L32.2934 35.5945C32.0985 35.3995 31.8416 35.2785 31.567 35.2526C31.2925 35.2266 31.0175 35.2973 30.7895 35.4524C29.2671 36.4398 27.5777 37.142 25.8039 37.5246C25.5346 37.5823 25.2939 37.7322 25.1231 37.9483C24.9524 38.1644 24.8623 38.4333 24.8684 38.7086V40.094L24.0158 42.6279H20.9842L20.1316 40.0703V38.6849C20.1377 38.4096 20.0476 38.1407 19.8769 37.9246C19.7061 37.7085 19.4654 37.5586 19.1961 37.5009C17.4239 37.1256 15.7346 36.4315 14.2105 35.4524C13.9821 35.3065 13.7105 35.2433 13.4411 35.2735C13.1717 35.3037 12.9208 35.4254 12.7303 35.6182L11.7474 36.601L9.37895 37.7851L7.23553 35.6419L8.41974 33.2738L9.40263 32.291C9.59774 32.0961 9.71869 31.8393 9.74464 31.5647C9.77058 31.2902 9.69988 31.0152 9.54474 30.7872C8.55724 29.2651 7.85501 27.5759 7.47237 25.8023C7.41459 25.533 7.26474 25.2923 7.04859 25.1216C6.83245 24.9509 6.56355 24.8608 6.28816 24.8669H4.92632L2.36842 24.0144V20.9832L4.92632 20.1307H6.31184C6.58723 20.1368 6.85614 20.0468 7.07228 19.876C7.28842 19.7053 7.43828 19.4646 7.49606 19.1953C7.8714 17.4233 8.56556 15.7342 9.54474 14.2104C9.69071 13.982 9.75389 13.7104 9.72372 13.441C9.69354 13.1716 9.57185 12.9207 9.37895 12.7303L8.39606 11.7475L7.21184 9.37939L9.35526 7.23623L11.7237 8.4203L12.7066 9.40307C12.8971 9.59594 13.148 9.71762 13.4174 9.74779C13.6868 9.77796 13.9584 9.7148 14.1868 9.56884C15.7092 8.58146 17.3986 7.87932 19.1724 7.49673C19.4417 7.43896 19.6825 7.28912 19.8532 7.073C20.024 6.85689 20.114 6.58802 20.1079 6.31266V4.92731L20.9842 2.36974H24.0158L24.8684 4.92731V6.31266C24.8623 6.58802 24.9524 6.85689 25.1231 7.073C25.2939 7.28912 25.5346 7.43896 25.8039 7.49673C27.5761 7.87202 29.2654 8.5661 30.7895 9.54516C31.0179 9.69111 31.2895 9.75428 31.5589 9.72411C31.8283 9.69394 32.0793 9.57226 32.2697 9.37939L33.2526 8.39662L35.6211 7.21255L37.7645 9.35571L36.5803 11.7238L35.5974 12.7066C35.4023 12.9015 35.2813 13.1584 35.2554 13.4329C35.2294 13.7074 35.3001 13.9824 35.4553 14.2104C36.4428 15.7325 37.145 17.4217 37.5276 19.1953C37.5854 19.4646 37.7353 19.7053 37.9514 19.876C38.1675 20.0468 38.4365 20.1368 38.7118 20.1307H40.0974L42.6553 20.9832L42.6316 24.0144Z" fill="#32B4D9"/>
<path d="M22.5 9.47366C19.9236 9.47366 17.4051 10.2375 15.263 11.6687C13.1208 13.0999 11.4512 15.1341 10.4653 17.514C9.47933 19.894 9.22136 22.5128 9.72398 25.0393C10.2266 27.5659 11.4672 29.8867 13.289 31.7082C15.1108 33.5297 17.4318 34.7702 19.9587 35.2728C22.4856 35.7753 25.1047 35.5174 27.485 34.5316C29.8652 33.5458 31.8996 31.8764 33.331 29.7345C34.7623 27.5926 35.5263 25.0744 35.5263 22.4984C35.5263 19.044 34.1539 15.7311 31.711 13.2885C29.2681 10.8459 25.9548 9.47366 22.5 9.47366ZM22.5 33.1549C20.3921 33.1549 18.3315 32.5299 16.5788 31.359C14.8261 30.188 13.4601 28.5237 12.6534 26.5764C11.8467 24.6292 11.6357 22.4865 12.0469 20.4194C12.4581 18.3522 13.4732 16.4534 14.9637 14.963C16.4543 13.4727 18.3533 12.4577 20.4207 12.0465C22.4882 11.6354 24.6311 11.8464 26.5786 12.653C28.5261 13.4595 30.1906 14.8254 31.3617 16.5779C32.5328 18.3303 33.1579 20.3907 33.1579 22.4984C33.1579 25.3246 32.035 28.0352 30.0363 30.0337C28.0375 32.0322 25.3266 33.1549 22.5 33.1549Z" fill="#32B4D9"/>
<path d="M25.6974 24.0258C25.9282 23.5495 26.0495 23.0276 26.0527 22.4984C26.0506 21.7655 25.8219 21.0512 25.3979 20.4534C24.9739 19.8556 24.3753 19.4036 23.6843 19.1593V15.394C23.6843 15.0799 23.5595 14.7788 23.3374 14.5567C23.1153 14.3347 22.8141 14.2099 22.5001 14.2099C22.186 14.2099 21.8848 14.3347 21.6627 14.5567C21.4406 14.7788 21.3158 15.0799 21.3158 15.394V19.1593C20.5326 19.4434 19.8742 19.9938 19.4557 20.7141C19.0372 21.4345 18.8852 22.279 19.0263 23.1C19.1674 23.921 19.5926 24.6663 20.2276 25.2057C20.8625 25.745 21.6669 26.0441 22.5001 26.0505C23.0294 26.0474 23.5513 25.926 24.0277 25.6953L26.6922 28.4187C26.8057 28.5322 26.9405 28.6222 27.0888 28.6836C27.2371 28.7451 27.3961 28.7767 27.5566 28.7767C27.7172 28.7767 27.8762 28.7451 28.0245 28.6836C28.1728 28.6222 28.3076 28.5322 28.4211 28.4187C28.5346 28.3052 28.6247 28.1704 28.6861 28.0221C28.7476 27.8738 28.7792 27.7148 28.7792 27.5543C28.7792 27.3938 28.7476 27.2348 28.6861 27.0865C28.6247 26.9382 28.5346 26.8034 28.4211 26.6899L25.6974 24.0258ZM21.3158 22.4984C21.3158 22.2642 21.3853 22.0352 21.5154 21.8405C21.6455 21.6458 21.8305 21.494 22.0469 21.4044C22.2633 21.3148 22.5014 21.2914 22.7311 21.337C22.9608 21.3827 23.1718 21.4955 23.3374 21.6611C23.503 21.8267 23.6158 22.0377 23.6615 22.2673C23.7072 22.497 23.6838 22.7351 23.5941 22.9515C23.5045 23.1678 23.3527 23.3528 23.158 23.4829C22.9632 23.613 22.7343 23.6824 22.5001 23.6824C22.186 23.6824 21.8848 23.5577 21.6627 23.3356C21.4406 23.1136 21.3158 22.8124 21.3158 22.4984Z" fill="#32B4D9"/>
</svg>
