<svg width="40" height="40" viewBox="0 0 40 40" fill="none" xmlns="http://www.w3.org/2000/svg">
<path d="M3.86467 8.89301e-06C1.74527 8.89301e-06 0 1.74528 0 3.86468V36.1353C0 38.2547 1.74527 40 3.86467 40H13.9123H27.4249H36.1353C38.2548 40 40 38.2547 40 36.1353V26.0877C40 23.9683 38.2548 22.223 36.1353 22.223H30.2648L31.4205 21.0673C31.4371 21.0509 31.4532 21.034 31.4688 21.0167L37.5507 14.9371C39.0493 13.4385 39.0493 10.9742 37.5507 9.47556L30.4463 2.362C29.697 1.61271 28.703 1.24303 27.7121 1.24303C26.7212 1.24303 25.7341 1.61276 24.9848 2.362L17.777 9.56976V3.86467C17.777 1.74527 16.0317 0 13.9123 0L3.86467 8.89301e-06ZM3.86467 2.35282H13.9123C14.769 2.35282 15.4242 3.00804 15.4242 3.86468V12.3499C15.4215 12.3959 15.4215 12.4419 15.4242 12.4878V12.5499H2.35281V3.8647C2.35281 3.00805 3.00803 2.35282 3.86467 2.35282ZM27.7167 3.57517C28.0971 3.57518 28.4776 3.72724 28.7805 4.03011L35.8918 11.1345C36.4975 11.7402 36.4975 12.6633 35.8918 13.269L30.5888 18.5697L21.3476 9.33541L26.6529 4.03011C26.9558 3.72717 27.3363 3.57517 27.7167 3.57517ZM19.6887 10.9943L28.9207 20.2355L17.777 31.3746V12.906L19.6887 10.9943ZM2.35281 14.9026H15.4242V25.0974H2.35281V14.9026ZM28.5967 24.5758H36.1353C36.992 24.5758 37.6449 25.231 37.6449 26.0877V36.1353C37.6449 36.992 36.992 37.6449 36.1353 37.6449H28.5967V24.5758ZM26.2439 26.2439V37.6449H17.4668C17.6666 37.1802 17.777 36.6696 17.777 36.1353V34.7108L26.2439 26.2439ZM2.35281 27.4502H15.4242V34.1548C15.4215 34.2007 15.4215 34.2467 15.4242 34.2926V36.1354C15.4242 36.992 14.769 37.6449 13.9123 37.6449H3.86467C3.00803 37.6449 2.35281 36.992 2.35281 36.1354V27.4502ZM8.88735 31.3171C7.90157 31.3171 7.08369 32.135 7.08369 33.1208C7.08369 34.1066 7.90157 34.9245 8.88735 34.9245C9.87314 34.9245 10.691 34.1066 10.691 33.1208C10.691 32.135 9.87314 31.3171 8.88735 31.3171Z" fill="#32B4D9"/>
</svg>
