<svg width="40" height="52" viewBox="0 0 40 52" fill="none" xmlns="http://www.w3.org/2000/svg">
<path d="M38.7477 25.6446C38.0944 24.9884 37.2777 24.6057 36.461 24.4963C36.6243 23.2387 36.2432 21.9811 35.3176 20.9968C34.7187 20.3954 33.902 20.0126 33.0853 19.8486C33.1398 19.6299 33.1398 19.4658 33.1398 19.2471C33.1398 18.1535 32.7042 17.0599 31.942 16.2944C31.5609 15.9117 31.1253 15.6383 30.6353 15.4196L35.0454 10.9905C36.6788 9.35015 36.6788 6.72555 35.0454 5.08517C33.412 3.44479 30.7986 3.44479 29.1652 5.08517L13.757 20.5594C13.1581 19.3565 12.178 17.6614 10.9258 16.1304C10.1091 15.0915 9.02015 14.1073 7.71345 13.1777C5.80783 11.8107 3.30331 11.8107 1.45214 13.1777C-0.072348 14.2713 -0.45347 16.2944 0.581006 17.8801L2.86774 21.4343C4.06556 23.2934 4.66447 25.4805 4.61002 27.7224L4.44668 34.5026C4.44668 35.1588 4.17445 35.7603 3.68443 36.2524L0.581006 39.3691C0.0909907 39.8612 0.0909907 40.6814 0.581006 41.2282C0.853236 41.5016 1.17991 41.6109 1.50659 41.6109C1.83327 41.6109 2.15994 41.5016 2.43217 41.2282L5.5356 38.1115C6.46119 37.1819 7.00565 35.9243 7.06009 34.5573L7.22343 27.7771C7.27788 25.0431 6.51563 22.3091 5.04559 20.0126L2.75885 16.4585C2.48662 16.0757 2.59551 15.5836 2.97664 15.3102C3.95667 14.5994 5.26337 14.5994 6.18896 15.3102C7.27788 16.0757 8.20346 16.9506 8.85682 17.7708C10.8169 20.2313 12.1236 23.2934 12.1236 23.2934C12.2869 23.6761 12.668 24.0042 13.0492 24.0589C13.4847 24.1682 13.9203 24.0042 14.247 23.6761L30.9619 6.88958C31.5609 6.28811 32.5409 6.28811 33.1398 6.88958C33.7387 7.49106 33.7387 8.47528 33.1398 9.07676L20.4538 21.9811C19.4194 23.02 19.0382 24.4416 19.3105 25.7539C20.5083 31.3312 16.2615 33.9012 16.0982 34.0105C15.4992 34.3933 15.2815 35.1588 15.6081 35.8149C15.8259 36.2524 16.2615 36.4711 16.7515 36.4711C16.9693 36.4711 17.1871 36.4164 17.4049 36.307C19.0382 35.3775 21.5972 32.8076 22.0872 28.8707C22.5228 29.0347 22.9584 29.0894 23.4484 29.0894C23.6662 29.0894 23.8839 29.0347 24.0473 29.0347C24.2106 29.8549 24.5917 30.6204 25.1907 31.2766C26.0073 32.0967 27.0418 32.4795 28.1307 32.4795C28.2941 32.4795 28.4574 32.4248 28.6752 32.4248C28.7841 33.245 29.1652 34.0652 29.8186 34.7213C30.2541 35.1588 30.7986 35.4869 31.3431 35.7056C29.1652 38.7676 26.5518 41.5563 24.5917 43.5247C22.8495 45.2198 20.4538 45.9306 18.0582 45.3838L16.6426 45.0557C16.207 44.9464 15.7715 45.1104 15.4448 45.3838L11.0891 49.7581C10.5991 50.2503 10.5991 51.0704 11.0891 51.6172C11.3613 51.8906 11.688 52 12.0147 52C12.3414 52 12.668 51.8906 12.9403 51.6172L16.7515 47.7897L17.4593 47.9537C20.6716 48.7192 24.0473 47.735 26.3885 45.4385C28.8385 43.0326 32.1598 39.4238 34.6098 35.5415C34.991 35.3228 35.3721 35.1041 35.6443 34.776L38.8022 31.6046C39.5644 30.8391 40 29.7455 40 28.6519C40 27.5037 39.5644 26.4648 38.7477 25.6446ZM24.4829 26.0273C23.8839 26.6288 22.9039 26.6288 22.305 26.0273C21.7061 25.4259 21.7061 24.4416 22.305 23.8402L27.913 18.2082C28.5119 17.6067 29.4919 17.6067 30.0908 18.2082C30.363 18.4816 30.5264 18.919 30.5264 19.3018C30.5264 19.7392 30.363 20.122 30.0908 20.3954L24.4829 26.0273ZM29.1652 29.4175C28.5663 30.0189 27.5863 30.0189 26.9874 29.4175C26.3885 28.816 26.3885 27.8318 26.9874 27.2303L31.2886 22.9106C31.6153 22.5825 31.9964 22.4732 32.3775 22.4732C32.7587 22.4732 33.1942 22.6372 33.4665 22.9106C34.0654 23.5121 34.0654 24.4963 33.4665 25.0978L29.1652 29.4175ZM36.8966 29.7455L33.7387 32.9169C33.1398 33.5184 32.1598 33.5184 31.5608 32.9169C30.9619 32.3155 30.9619 31.3312 31.5608 30.7298L34.7187 27.5584C35.3176 26.9569 36.2977 26.9569 36.8966 27.5584C37.1688 27.8318 37.3321 28.2692 37.3321 28.6519C37.3866 29.0347 37.2232 29.4175 36.8966 29.7455Z" fill="#32B4D9"/>
<path d="M12.9403 6.23344C13.6481 6.23344 14.247 5.63197 14.247 4.92114V1.3123C14.247 0.601472 13.6481 0 12.9403 0C12.2325 0 11.6336 0.601472 11.6336 1.3123V4.92114C11.6336 5.63197 12.2325 6.23344 12.9403 6.23344Z" fill="#32B4D9"/>
<path d="M6.35236 8.20188C6.62459 8.47528 6.95127 8.58464 7.27794 8.58464C7.60462 8.58464 7.93129 8.47528 8.20353 8.20188C8.69354 7.70977 8.69354 6.88958 8.20353 6.34278L5.64456 3.77286C5.15454 3.28074 4.28341 3.28074 3.79339 3.77286C3.30338 4.26497 3.30338 5.08516 3.79339 5.63195L6.35236 8.20188Z" fill="#32B4D9"/>
<path d="M18.6027 8.58464C18.9294 8.58464 19.2561 8.47528 19.5283 8.20188L22.0873 5.63195C22.5773 5.13984 22.5773 4.31965 22.0873 3.77286C21.5973 3.28074 20.7261 3.28074 20.2361 3.77286L17.6772 6.34278C17.1871 6.8349 17.1871 7.65509 17.6772 8.20188C17.9494 8.47528 18.2761 8.58464 18.6027 8.58464Z" fill="#32B4D9"/>
</svg>
