<svg width="15" height="20" viewBox="0 0 15 20" fill="none" xmlns="http://www.w3.org/2000/svg">
<path d="M0.722222 8.57141H13.7222C13.9138 8.57141 14.0975 8.49615 14.2329 8.36219C14.3684 8.22824 14.4444 8.04655 14.4444 7.85711C14.4444 7.66767 14.3684 7.48598 14.2329 7.35203C14.0975 7.21807 13.9138 7.14281 13.7222 7.14281H7.94444V2.43846L9.6005 4.07634C9.73671 4.20645 9.91915 4.27845 10.1085 4.27682C10.2979 4.2752 10.479 4.20007 10.6129 4.06764C10.7468 3.9352 10.8228 3.75605 10.8244 3.56876C10.8261 3.38147 10.7533 3.20104 10.6217 3.06632L7.73283 0.209136C7.5974 0.0752264 7.41373 0 7.22222 0C7.03071 0 6.84705 0.0752264 6.71161 0.209136L3.82272 3.06632C3.75374 3.13221 3.69872 3.21103 3.66087 3.29818C3.62302 3.38533 3.6031 3.47906 3.60226 3.5739C3.60143 3.66875 3.6197 3.7628 3.65602 3.85059C3.69233 3.93837 3.74596 4.01813 3.81377 4.08519C3.88158 4.15226 3.96222 4.2053 4.05098 4.24121C4.13974 4.27713 4.23484 4.2952 4.33073 4.29438C4.42663 4.29355 4.5214 4.27385 4.60951 4.23641C4.69763 4.19898 4.77732 4.14456 4.84394 4.07634L6.5 2.43846V7.14281H0.722222C0.530677 7.14281 0.346977 7.21807 0.211534 7.35203C0.0760912 7.48598 0 7.66767 0 7.85711C0 8.04655 0.0760912 8.22824 0.211534 8.36219C0.346977 8.49615 0.530677 8.57141 0.722222 8.57141Z" fill="#32B4D9"/>
<path d="M13.7222 11.4286H0.722222C0.530677 11.4286 0.346977 11.5038 0.211534 11.6378C0.0760912 11.7718 0 11.9534 0 12.1429C0 12.3323 0.0760912 12.514 0.211534 12.648C0.346977 12.7819 0.530677 12.8572 0.722222 12.8572H6.5V17.5615L4.84394 15.9237C4.70773 15.7935 4.5253 15.7215 4.33593 15.7232C4.14657 15.7248 3.96543 15.7999 3.83152 15.9324C3.69761 16.0648 3.62166 16.244 3.62001 16.4312C3.61837 16.6185 3.69116 16.799 3.82272 16.9337L6.71161 19.7909C6.84705 19.9248 7.03071 20 7.22222 20C7.41373 20 7.5974 19.9248 7.73283 19.7909L10.6217 16.9337C10.7533 16.799 10.8261 16.6185 10.8244 16.4312C10.8228 16.244 10.7468 16.0648 10.6129 15.9324C10.479 15.7999 10.2979 15.7248 10.1085 15.7232C9.91915 15.7215 9.73671 15.7935 9.6005 15.9237L7.94444 17.5615V12.8572H13.7222C13.9138 12.8572 14.0975 12.7819 14.2329 12.648C14.3684 12.514 14.4444 12.3323 14.4444 12.1429C14.4444 11.9534 14.3684 11.7718 14.2329 11.6378C14.0975 11.5038 13.9138 11.4286 13.7222 11.4286Z" fill="#32B4D9"/>
</svg>
