<svg width="20" height="20" viewBox="0 0 20 20" fill="none" xmlns="http://www.w3.org/2000/svg">
<path d="M5.78175 13.5241C6.11456 13.5241 6.38436 13.2575 6.38436 12.9285C6.38436 12.5996 6.11456 12.3329 5.78175 12.3329C5.44894 12.3329 5.17915 12.5996 5.17915 12.9285C5.17915 13.2575 5.44894 13.5241 5.78175 13.5241Z" fill="#32B4D9"/>
<path d="M20 0H6.49475V6.65118H0V20H13.5052V13.3488H20V0ZM18.9486 2.84409L13.5052 8.22445V6.65118L11.5035 6.65116L17.1343 1.08553L17.0874 1.03918H18.9486V2.84409ZM12.4539 13.3155C11.5517 13.1654 10.1508 12.9966 9.64677 14.6743C9.37747 15.5704 8.64816 16.6 8.06216 17.4273C7.58561 18.1001 7.25978 18.5726 7.10292 18.9608H5.4378C5.44581 18.3595 5.58694 17.5086 6.19221 16.7607C6.40632 16.4961 6.68747 16.304 6.98509 16.1006C7.66811 15.6337 8.51819 15.0527 8.77851 13.4058C8.99985 12.0056 8.70792 11.2198 8.42562 10.4599C8.15574 9.73354 7.89946 9.04364 8.0494 7.69036H9.58906C9.63251 7.90249 9.66953 8.12219 9.70858 8.35456C9.92911 9.6675 10.2036 11.3014 11.969 12.1993C12.0678 12.2495 12.132 12.2844 12.1729 12.3077C12.2368 12.3816 12.3312 12.4368 12.4539 12.4894V13.3155ZM3.90999 14.2396C3.88214 13.6831 3.86011 13.2435 4.01412 12.6564C4.17112 12.0577 4.43173 11.6707 4.7335 11.2227C5.24218 10.4675 5.81708 9.61259 5.90092 7.69036H6.99317C6.84473 9.21767 7.15814 10.063 7.43868 10.8182C7.69643 11.5119 7.91906 12.1112 7.73973 13.2454C7.54906 14.4517 7.01063 14.8197 6.38711 15.2459C6.0403 15.4829 5.68163 15.7281 5.37122 16.1115C4.57597 17.0942 4.39464 18.1927 4.38646 18.9608H3.28803C4.01896 16.4178 3.95896 15.2163 3.90999 14.2396ZM12.4539 11.2773C12.4526 11.2766 12.4514 11.2759 12.45 11.2753C11.1542 10.6162 10.9558 9.43497 10.7457 8.18437C10.7183 8.02138 10.6893 7.85537 10.6586 7.69036H12.4539V11.2773ZM7.5461 5.73149L12.2933 1.03918H15.6944L10.0166 6.65115L7.5461 6.65113V5.73149ZM10.8065 1.03918L7.5461 4.26185V1.03918H10.8065ZM2.6848 7.69036C2.53934 8.40448 2.14574 9.33083 1.70336 10.3702C1.48921 10.8734 1.26587 11.399 1.05136 11.9433V7.69036H2.6848ZM1.05136 15.6216C1.34175 13.901 2.04819 12.2399 2.67246 10.7732C3.17188 9.59975 3.61393 8.55936 3.75158 7.69036H4.8488C4.77197 9.28991 4.32787 9.94974 3.85836 10.6468C3.53361 11.129 3.19784 11.6275 2.99638 12.3956C2.80208 13.1364 2.83019 13.6972 2.85996 14.291C2.90678 15.2256 2.96439 16.3836 2.19325 18.9608H1.05136V15.6216ZM8.28481 18.9608C8.46522 18.6704 8.71611 18.316 8.92344 18.0233C9.55308 17.1344 10.3367 16.0281 10.6546 14.9701C10.8911 14.1828 11.3167 14.1771 12.384 14.3579C12.4071 14.3618 12.4306 14.3657 12.4539 14.3697V18.9608H8.28481ZM13.5052 9.69401L18.9486 4.31365V7.81594L14.4023 12.3096H13.5052V9.69401ZM15.889 12.3096L18.9486 9.28549V12.3096H15.889Z" fill="#32B4D9"/>
</svg>
