<svg width="17" height="19" viewBox="0 0 17 19" fill="none" xmlns="http://www.w3.org/2000/svg">
<path d="M8.23331 19C12.7731 19 16.4666 15.3065 16.4666 10.7667C16.4666 6.44017 13.1114 2.88492 8.86664 2.56011V1.26667H10.7666V0H5.69999V1.26667H7.59999V2.56011C3.35526 2.88492 0 6.44014 0 10.7667C0 15.3065 3.69348 19 8.23331 19ZM8.86664 3.83009C9.67641 3.90344 10.4461 4.11603 11.1526 4.44352L8.86664 8.40305V3.83009ZM7.59999 3.83009V10.7667C7.59999 11.0533 7.79248 11.3042 8.06941 11.3785C8.12383 11.3931 8.17889 11.4 8.23331 11.4C8.45549 11.4 8.66662 11.2827 8.78178 11.0833L12.2485 5.07878C14.0322 6.34165 15.2 8.41971 15.2 10.7667C15.2 14.6081 12.0747 17.7333 8.23331 17.7333C4.39189 17.7333 1.26665 14.6081 1.26665 10.7667C1.26665 7.13885 4.0544 4.15131 7.59999 3.83009Z" fill="#32B4D9"/>
</svg>
