<svg width="95" height="22" viewBox="0 0 95 22" fill="none" xmlns="http://www.w3.org/2000/svg">
<path d="M32.6964 6.81991H30.8763C30.7594 6.81991 30.6592 6.8527 30.5757 6.93467C30.4922 7.01664 30.4588 7.115 30.4588 7.22976V11.3283H25.9334V7.22976C25.9334 7.115 25.9 7.01664 25.8165 6.93467C25.733 6.8527 25.6328 6.81991 25.5159 6.81991H23.6957C23.5788 6.81991 23.4786 6.8527 23.3951 6.93467C23.3117 7.01664 23.2783 7.115 23.2783 7.22976V17.8859C23.2783 18.0006 23.3117 18.099 23.3951 18.181C23.4786 18.2629 23.5788 18.2957 23.6957 18.2957H25.5159C25.6328 18.2957 25.733 18.2629 25.8165 18.181C25.9 18.099 25.9334 18.0006 25.9334 17.8859V13.6562H30.4588V17.8859C30.4588 18.0006 30.4922 18.099 30.5757 18.181C30.6592 18.2629 30.7594 18.2957 30.8763 18.2957H32.6964C32.8133 18.2957 32.9135 18.2629 32.997 18.181C33.0805 18.099 33.1139 18.0006 33.1139 17.8859V7.22976C33.1139 7.115 33.0805 7.01664 32.997 6.93467C32.9135 6.86909 32.8133 6.81991 32.6964 6.81991Z" fill="#32B4D9"/>
<path d="M45.5379 6.81991H43.9014C43.7678 6.81991 43.6509 6.8527 43.5674 6.90188C43.4839 6.96745 43.4171 7.03303 43.367 7.09861L38.2405 14.312V7.22976C38.2405 7.115 38.2071 7.01664 38.1236 6.93467C38.0401 6.8527 37.9399 6.81991 37.823 6.81991H36.0028C35.8859 6.81991 35.8024 6.8527 35.7022 6.93467C35.6187 7.01664 35.5686 7.115 35.5686 7.22976V17.8859C35.5686 18.0006 35.602 18.0826 35.6855 18.181C35.769 18.2629 35.8692 18.3121 35.9861 18.3121H37.6393C37.7896 18.3121 37.9065 18.2793 37.99 18.2137C38.0735 18.1482 38.1236 18.0826 38.157 18.017L43.2835 11.0332V17.9023C43.2835 18.017 43.3169 18.1154 43.4171 18.1973C43.5006 18.2793 43.6008 18.3121 43.7177 18.3121H45.5379C45.6548 18.3121 45.755 18.2793 45.8385 18.1973C45.922 18.1154 45.9554 18.017 45.9554 17.9023V7.24615C45.9554 7.13139 45.922 7.03303 45.8385 6.95106C45.755 6.86909 45.6548 6.81991 45.5379 6.81991Z" fill="#32B4D9"/>
<path d="M59.2143 6.81991H57.6613C57.4943 6.81991 57.3607 6.86909 57.2939 6.95106C57.2104 7.03303 57.1603 7.09861 57.1269 7.14779L54.0209 12.7054L50.9483 7.14779C50.9149 7.09861 50.8648 7.03303 50.7813 6.95106C50.6978 6.86909 50.5809 6.81991 50.414 6.81991H48.861C48.7441 6.81991 48.6606 6.8527 48.5604 6.93467C48.4769 7.01664 48.4268 7.115 48.4268 7.22976V17.8859C48.4268 18.0006 48.4602 18.099 48.5604 18.181C48.6439 18.2629 48.7441 18.2957 48.861 18.2957H50.5642C50.6811 18.2957 50.7646 18.2629 50.8481 18.181C50.9316 18.099 50.965 18.0006 50.965 17.8859V11.2627L53.0858 15.1645C53.1359 15.2628 53.2194 15.3448 53.3029 15.4268C53.3864 15.5087 53.5033 15.5415 53.6535 15.5415H54.4384C54.5887 15.5415 54.7056 15.5087 54.7891 15.4268C54.8726 15.3448 54.9561 15.2628 55.0061 15.1645L57.1102 11.2627V17.8859C57.1102 18.0006 57.1436 18.099 57.2271 18.181C57.3106 18.2629 57.3941 18.2957 57.511 18.2957H59.2143C59.3312 18.2957 59.4314 18.2629 59.5149 18.181C59.5984 18.099 59.6317 18.0006 59.6317 17.8859V7.22976C59.6317 7.115 59.5984 7.01664 59.5149 6.93467C59.4314 6.86909 59.3312 6.81991 59.2143 6.81991Z" fill="#32B4D9"/>
<path d="M68.4321 7.26255C68.3987 7.14779 68.3319 7.03303 68.2317 6.95106C68.1315 6.86909 67.9979 6.81991 67.8142 6.81991H65.6767C65.4931 6.81991 65.3595 6.86909 65.2593 6.95106C65.1591 7.03303 65.0923 7.14779 65.0589 7.26255L61.0845 17.8039C61.0678 17.8531 61.0679 17.9023 61.0679 17.9514C61.0679 18.0334 61.1012 18.1154 61.168 18.181C61.2348 18.2465 61.3183 18.2957 61.4185 18.2957H63.1552C63.3222 18.2957 63.4391 18.2629 63.5226 18.181C63.6061 18.099 63.6562 18.0334 63.6729 17.9678L64.3909 16.1317H69.1L69.8181 17.9678C69.8348 18.0334 69.8849 18.099 69.9684 18.181C70.0519 18.2629 70.1687 18.2957 70.3357 18.2957H72.0724C72.1726 18.2957 72.2561 18.2629 72.3229 18.181C72.3897 18.1154 72.4231 18.0334 72.4231 17.9514C72.4231 17.9023 72.4231 17.8531 72.4064 17.8039L68.4321 7.26255ZM65.0088 14.0169L66.7455 9.2954L68.4655 14.0169H65.0088Z" fill="#32B4D9"/>
<path d="M80.138 12.3447L83.2607 7.36091C83.3108 7.29533 83.3275 7.22976 83.3275 7.16418C83.3275 7.08221 83.2941 7.00024 83.244 6.93467C83.1772 6.86909 83.0937 6.81991 82.9935 6.81991H80.9729C80.8226 6.81991 80.689 6.8527 80.5889 6.90188C80.4887 6.96745 80.4052 7.03303 80.3551 7.13139L77.7667 11.3283H76.531V7.22976C76.531 7.115 76.4976 7.01664 76.4141 6.93467C76.3306 6.8527 76.2304 6.81991 76.1135 6.81991H74.2934C74.1765 6.81991 74.0763 6.8527 73.9928 6.93467C73.9093 7.01664 73.8759 7.115 73.8759 7.22976V17.8859C73.8759 18.0006 73.9093 18.099 73.9928 18.181C74.0763 18.2629 74.1765 18.2957 74.2934 18.2957H76.1135C76.2304 18.2957 76.3306 18.2629 76.4141 18.181C76.4976 18.099 76.531 18.0006 76.531 17.8859V13.6562H77.8669L80.6223 18.0006C80.6723 18.0498 80.7224 18.1154 80.8059 18.181C80.8894 18.2465 81.0063 18.2957 81.1733 18.2957H83.2607C83.3609 18.2957 83.4444 18.2629 83.5279 18.181C83.5947 18.1154 83.628 18.017 83.628 17.9187C83.628 17.8367 83.6114 17.7875 83.5947 17.7383L80.138 12.3447Z" fill="#32B4D9"/>
<path d="M94.6326 14.23H92.7289C92.5954 14.23 92.4952 14.2628 92.4117 14.312C92.3282 14.3775 92.2781 14.4759 92.228 14.6399C92.0777 15.2792 91.7938 15.7055 91.393 15.9514C90.9923 16.1973 90.508 16.312 89.9235 16.312C89.2389 16.312 88.6878 16.1317 88.287 15.7546C87.8863 15.3776 87.6692 14.771 87.6358 13.9021C87.6024 12.9677 87.6024 12.0496 87.6358 11.1479C87.6692 10.279 87.8863 9.67247 88.287 9.2954C88.6878 8.91834 89.2389 8.73801 89.9235 8.73801C90.508 8.73801 90.9923 8.85277 91.3763 9.09867C91.7604 9.34459 92.0443 9.78722 92.2113 10.4266C92.2614 10.5741 92.3115 10.6889 92.395 10.7545C92.4785 10.82 92.5787 10.8528 92.7122 10.8528H94.6159C94.7161 10.8528 94.7996 10.82 94.8664 10.7545C94.9332 10.6889 94.9833 10.6069 94.9833 10.5086C94.9666 9.93477 94.833 9.41016 94.5825 8.93474C94.3321 8.45931 93.9981 8.04946 93.5472 7.70518C93.0963 7.36091 92.5787 7.08221 91.9608 6.90188C91.3429 6.72154 90.675 6.62318 89.9235 6.62318C88.9049 6.62318 88.0199 6.80351 87.2851 7.14779C86.5504 7.49206 85.9826 8.00028 85.5818 8.65604C85.1811 9.3118 84.9473 10.1151 84.8972 11.0496C84.8805 11.525 84.8805 12.0168 84.8805 12.525C84.8805 13.0332 84.8805 13.5251 84.8972 13.9677C84.9473 14.9185 85.1644 15.7219 85.5651 16.394C85.9659 17.0498 86.5337 17.558 87.2684 17.9023C88.0032 18.2465 88.8882 18.4269 89.9402 18.4269C90.6917 18.4269 91.3596 18.3285 91.9775 18.1482C92.5954 17.9678 93.113 17.6891 93.5639 17.3449C94.0148 17.0006 94.3487 16.5907 94.5992 16.1153C94.8497 15.6399 94.9833 15.1153 95 14.5415C95 14.4431 94.9666 14.3612 94.8831 14.2956C94.8163 14.2628 94.7328 14.23 94.6326 14.23Z" fill="#32B4D9"/>
<path d="M15.8139 4.60672L16.6989 4.1149L9.23449 0L8.34945 0.475426L9.23449 0.967246L15.8139 4.60672Z" fill="#DCDCDC"/>
<path d="M9.23449 13.3119V9.19704V17.476L16.6989 21.5909V13.3119H9.23449Z" fill="#32B4D9"/>
<path d="M7.46441 8.22979L0.885041 4.60672L0 5.08214V13.3119L7.46441 9.19704L8.34945 8.72161L7.46441 8.22979Z" fill="#DCDCDC"/>
<path d="M0 13.3119V21.5909L7.46441 17.476V13.3119H0Z" fill="#DCDCDC"/>
<path d="M0 13.3119H7.46441V9.19704L0 13.3119Z" fill="#B3B3B3"/>
<path d="M16.6989 5.08214L15.8139 4.60672L9.23449 0.967246L8.34945 0.475426L7.46441 0L0 4.1149L0.885041 4.60672L7.46441 8.22979L8.34945 8.72161L9.23449 9.19704L16.6989 13.3119V5.08214Z" fill="#32B4D9"/>
<path d="M16.6989 13.3119L9.23449 9.19704V13.3119H16.6989Z" fill="#009DC1"/>
</svg>
