<svg width="16" height="16" viewBox="0 0 16 16" fill="none" xmlns="http://www.w3.org/2000/svg">
<path d="M14.8555 8.87105L9.86509 1.7951C9.14531 0.742611 8.2336 0.127311 7.19392 0.0139661C5.80235 -0.115571 4.6987 0.694035 4.52275 0.872148L1.78761 2.84759C0.747929 3.59242 0.140119 4.51537 0.0281535 5.4869C-0.163787 6.89561 0.683949 8.07764 0.811909 8.25575L5.67439 15.1536C5.85034 15.4612 6.34618 15.526 6.65009 15.2831C6.954 15.0402 7.08196 14.6031 6.82604 14.2954L1.89957 7.3328C1.89957 7.3328 1.29176 6.53939 1.41972 5.66501C1.4837 5.04971 1.89957 4.49918 2.57136 3.99723L5.37049 1.97321C5.37049 1.97321 6.10626 1.35791 7.01798 1.42268C7.62579 1.48745 8.16962 1.90844 8.66546 2.58851L13.6559 9.66446C13.6559 9.66446 14.6956 11.1379 14.4397 12.4333C14.3757 12.9838 14.0718 13.4858 13.5279 13.842C11.7045 15.1374 10.4889 13.9068 9.40123 12.3685C8.61748 11.2675 6.36218 8.19098 6.23422 8.06145C6.23422 8.06145 4.77867 6.15078 5.75437 5.47071C6.36218 5.03352 7.14594 5.47071 8.18561 6.87942L11.1607 11.057C11.4006 11.3646 11.7685 11.3646 12.1364 11.1865C12.4403 10.9436 12.5682 10.5065 12.3763 10.2636L9.38524 6.16697C8.5375 4.93637 7.08196 2.91235 4.95462 4.4506C4.41079 4.88779 4.0429 5.43832 3.97892 6.05362C3.91494 7.34899 4.95462 8.82247 5.13056 9.06536C5.37049 9.37301 7.49783 12.4495 8.2336 13.4372C10.185 16.1413 12.3123 16.6918 14.4397 15.1536C15.2874 14.5383 15.7832 13.7449 15.9592 12.7572C16.2471 10.8465 14.9195 8.93582 14.8555 8.87105Z" fill="#32B4D9"/>
</svg>
